<?xml version="1.0" standalone="no"?>
<!DOCTYPE svg PUBLIC "-//W3C//DTD SVG 20010904//EN"
 "http://www.w3.org/TR/2001/REC-SVG-20010904/DTD/svg10.dtd">
<svg version="1.0" xmlns="http://www.w3.org/2000/svg"
 width="888.000000pt" height="888.000000pt" viewBox="0 0 888.000000 888.000000"
 preserveAspectRatio="xMidYMid meet">
<metadata>
Created by potrace 1.11, written by Peter Selinger 2001-2013
</metadata>
<g transform="translate(0.000000,888.000000) scale(0.100000,-0.100000)"
fill="#000000" stroke="none">
<path d="M2823 8864 c-18 -9 -34 -28 -42 -49 -7 -19 -18 -40 -24 -47 -18 -19
-37 -66 -45 -112 -14 -83 -7 -560 13 -801 12 -156 15 -181 20 -215 4 -19 7
-42 7 -50 0 -8 4 -40 8 -70 5 -30 11 -71 14 -90 3 -19 8 -45 10 -56 2 -12 7
-37 10 -55 11 -67 17 -95 32 -154 8 -33 16 -70 19 -82 7 -32 11 -46 39 -143
86 -302 219 -599 374 -835 69 -104 347 -473 382 -505 3 -3 27 -32 54 -65 28
-33 57 -67 65 -76 9 -8 35 -38 59 -66 24 -28 57 -67 75 -86 18 -19 52 -58 77
-87 25 -28 54 -62 65 -74 83 -93 176 -197 210 -235 47 -54 100 -113 135 -151
14 -15 45 -51 70 -81 25 -29 59 -67 75 -85 17 -18 44 -50 62 -71 18 -21 42
-50 55 -64 13 -15 41 -48 63 -75 22 -26 45 -52 51 -58 14 -15 204 -255 229
-290 11 -16 25 -34 32 -40 20 -22 157 -218 199 -286 52 -83 136 -237 134 -246
-1 -4 3 -10 8 -13 5 -3 18 -24 29 -46 11 -22 58 -116 105 -210 47 -93 97 -195
111 -225 69 -151 87 -192 87 -196 0 -4 14 -36 51 -119 13 -29 91 -238 93 -250
1 -5 13 -41 26 -80 13 -38 23 -74 22 -79 -2 -4 1 -13 6 -20 7 -8 28 -80 37
-126 1 -3 11 -48 22 -100 12 -52 27 -124 34 -160 18 -96 55 -199 81 -228 47
-50 114 -64 174 -36 74 35 140 184 150 338 3 44 7 106 9 136 3 30 7 91 10 135
3 44 8 116 11 160 9 109 9 693 1 780 -16 161 -21 202 -38 300 -5 33 -12 70
-14 83 -2 12 -6 30 -9 40 -3 9 -7 28 -10 42 -3 14 -9 40 -15 58 -5 18 -11 36
-12 40 -5 19 -9 34 -39 127 -17 55 -35 109 -40 120 -5 11 -20 52 -35 90 -14
39 -34 86 -44 105 -10 19 -22 46 -26 60 -8 26 -105 223 -167 340 -19 36 -67
119 -107 185 -40 66 -82 136 -93 155 -11 19 -23 37 -27 40 -4 3 -20 26 -36 52
-17 27 -33 48 -37 48 -5 0 -8 4 -8 10 0 11 -71 113 -82 118 -5 2 -8 10 -8 17
0 7 -3 15 -7 17 -5 2 -35 39 -68 83 -112 147 -137 180 -163 210 -15 17 -47 55
-72 85 -47 59 -75 91 -185 215 -145 164 -199 219 -560 580 -446 446 -511 516
-691 741 -126 158 -138 174 -148 195 -5 11 -13 19 -18 19 -4 0 -8 6 -8 14 0 8
-4 16 -8 18 -12 4 -92 125 -92 137 0 6 -4 11 -8 11 -5 0 -15 12 -23 28 -8 15
-16 29 -19 32 -3 3 -25 39 -48 80 -24 41 -47 82 -52 90 -54 94 -187 377 -194
415 -2 6 -9 26 -18 45 -8 19 -23 60 -32 90 -10 30 -20 62 -23 70 -3 8 -7 20
-8 25 0 6 -4 17 -7 25 -19 44 -59 229 -59 273 -1 29 -6 64 -13 79 -12 29 -129
138 -149 139 -7 0 -19 2 -28 4 -9 1 -30 -4 -46 -11z"/>
<path d="M6938 7548 c-12 -10 -24 -18 -28 -18 -4 0 -18 -28 -30 -62 -13 -35
-26 -67 -30 -73 -11 -15 -41 -111 -47 -148 -3 -18 -14 -66 -25 -107 -11 -41
-21 -79 -23 -85 -1 -5 -5 -17 -8 -25 -3 -8 -13 -40 -23 -70 -46 -149 -163
-398 -275 -584 -51 -86 -206 -316 -236 -351 -4 -5 -26 -32 -48 -60 -40 -50
-178 -215 -225 -269 -45 -51 -90 -99 -181 -192 -55 -57 -89 -100 -89 -113 0
-12 5 -21 10 -21 6 0 10 -5 10 -11 0 -6 8 -23 19 -37 10 -15 28 -43 39 -62 11
-19 56 -94 100 -167 140 -230 284 -513 317 -620 3 -13 10 -23 15 -23 5 0 44
43 87 96 43 53 83 102 88 108 6 6 39 47 75 91 35 44 67 82 70 85 3 3 37 48 76
100 100 136 184 272 234 380 12 25 29 61 40 80 77 146 202 542 226 719 2 18 6
36 8 40 3 3 7 25 10 49 3 23 9 61 12 85 7 46 11 83 22 172 9 78 9 828 0 880
-4 22 -10 60 -13 85 -4 25 -8 56 -10 70 -4 25 -46 69 -68 71 -61 5 -81 3 -99
-13z"/>
<path d="M1830 7308 c-55 -23 -52 -20 -56 -60 -2 -18 -10 -69 -16 -113 -19
-121 -16 -626 6 -920 6 -78 17 -190 22 -220 3 -16 7 -48 9 -70 4 -46 13 -107
22 -150 3 -16 7 -39 9 -50 3 -23 11 -69 19 -105 3 -14 8 -36 11 -50 23 -119
128 -464 168 -555 71 -160 95 -212 134 -285 25 -47 59 -107 76 -135 17 -27 38
-62 45 -77 8 -16 18 -28 23 -28 4 0 8 -7 8 -15 0 -8 4 -15 8 -15 5 0 15 -12
23 -27 8 -16 16 -30 19 -33 3 -3 18 -23 34 -45 17 -22 40 -51 52 -63 13 -13
40 -44 61 -69 21 -25 47 -55 58 -66 11 -12 54 -60 95 -107 41 -47 84 -94 95
-105 11 -11 35 -38 54 -60 19 -22 66 -76 105 -119 39 -43 78 -87 87 -98 9 -10
45 -50 79 -88 34 -38 70 -79 80 -90 26 -30 143 -161 155 -174 13 -13 172 -192
254 -285 31 -34 61 -68 67 -75 5 -6 31 -35 57 -63 l46 -53 34 113 c19 61 45
146 57 187 12 41 24 82 27 90 3 8 7 20 9 25 11 43 104 301 141 390 50 123 126
283 178 375 l34 61 -52 55 c-29 31 -90 96 -137 144 -47 49 -119 124 -160 168
-258 273 -385 405 -545 566 -99 100 -202 207 -230 238 -134 150 -168 191 -273
327 -62 80 -117 151 -122 158 -6 7 -10 15 -10 18 0 4 -6 13 -14 21 -15 14
-145 217 -187 290 -87 152 -191 373 -236 499 -13 39 -28 79 -33 90 -13 30 -23
59 -26 72 -1 7 -11 41 -23 76 -31 96 -69 265 -75 331 -5 57 -25 95 -79 149
-42 42 -121 53 -187 25z"/>
<path d="M4506 4087 c-86 -131 -124 -194 -174 -287 -20 -36 -40 -68 -45 -71
-5 -3 -7 -8 -5 -11 4 -6 -105 -221 -117 -230 -5 -4 -7 -8 -3 -8 4 0 -3 -20
-17 -44 -13 -24 -22 -46 -19 -48 2 -3 -2 -11 -11 -18 -8 -7 -15 -18 -15 -25 0
-7 -15 -46 -34 -87 -19 -40 -44 -96 -55 -124 -11 -28 -29 -71 -39 -95 -43 -94
-78 -237 -106 -431 -4 -21 -8 -53 -11 -70 -37 -244 -37 -771 0 -1226 7 -84 12
-116 25 -147 4 -11 13 -34 20 -52 17 -46 63 -90 107 -102 52 -15 70 -14 105 7
49 28 104 166 134 336 3 16 10 41 16 55 5 14 12 37 14 51 8 43 88 297 119 378
8 20 31 82 51 137 20 55 51 132 68 170 18 39 39 86 46 105 18 45 191 393 199
400 3 3 19 30 35 60 16 30 35 62 42 71 8 8 14 19 14 22 0 21 219 346 347 514
l62 82 -27 33 c-15 18 -37 44 -48 58 -12 14 -41 48 -64 75 -23 28 -52 61 -63
75 -12 14 -48 57 -81 95 -32 39 -64 77 -72 85 -38 43 -57 65 -146 170 -53 63
-107 127 -121 142 -14 15 -32 37 -41 49 -14 21 -17 19 -90 -94z"/>
<path d="M5088 2658 c-214 -254 -403 -576 -562 -955 l-26 -62 40 -73 c86 -154
234 -468 280 -593 4 -11 13 -33 20 -50 40 -96 117 -360 150 -510 41 -188 66
-274 91 -315 5 -8 12 -22 15 -30 3 -9 21 -27 41 -40 50 -34 117 -34 160 0 40
31 86 125 106 215 15 67 20 112 34 305 9 129 8 865 -1 945 -4 39 -9 86 -11
105 -9 89 -33 246 -41 270 -3 8 -8 31 -10 50 -3 19 -10 53 -15 75 -6 22 -13
47 -15 55 -8 33 -24 89 -48 165 -13 44 -53 173 -88 287 -35 114 -66 208 -69
208 -4 0 -26 -24 -51 -52z"/>
</g>
</svg>
