<svg xmlns="http://www.w3.org/2000/svg" width="959" height="222" version="1">
  <path fill="#FFF" d="M335 179h-5v-1c0-3-2-3-6-3-6 0-8 0-8 3 0 5 1 5 5 5 8 1 15-1 15 9 0 8-6 8-12 8-7 0-13 0-13-6v-3h4v2c0 3 2 3 9 3 3 0 7 1 7-4s-2-4-7-5c-7 0-13 0-13-8s5-8 13-8c5 0 11 0 11 7v1zM347 183h2l10-12h5l-12 13 14 16h-5l-12-14h-2v14h-4v-41h4zM382 171c11 0 13 2 13 15 0 12-2 14-13 14s-13-2-13-14c0-13 2-15 13-15m0 26c8 0 8-1 8-11s0-12-8-12-8 2-8 12 0 11 8 11m5-35l-9 6-1-3 8-6 2 3zM402 159h4v41h-4zM420 164h-5v-5h5v5zm0 36h-5v-29h5v29zM467 200v-3c-1 3-5 3-9 3-7 0-11-1-11-8 0-8 4-10 11-10 3 0 9 1 9 3v-5c0-5-2-6-7-6-4 0-8 0-8 4v1h-4c0-8 5-8 11-8 8 0 13 1 13 9v20h-5zm0-9c0-5-3-5-8-5s-8 0-8 5 3 6 8 6c4 0 8 0 8-6M495 175h-11v18c0 3 1 4 4 4 4 0 4-2 4-5v-2h5v2c0 6-3 8-9 8s-8-2-8-8v-17h-4v-4h4v-7h4v7h11v4zM513 200h-6l-10-29h5l8 26 8-26h5zM532 164h-5v-5h5v5zm0 36h-5v-29h5v29zM544 175h1c1-4 5-4 8-4 8 0 11 2 11 10v19h-4v-20c0-5-2-6-7-6-7 0-9 3-9 9v17h-4v-29h4v4zM577 175c2-4 6-4 9-4 8 0 11 2 11 10v19h-4v-20c0-5-2-6-7-6-7 0-9 3-9 9v17h-4v-29h4v4zM625 196c-2 4-5 4-9 4-8 0-10-3-10-10v-19h4v19c0 4 0 7 6 7s9-1 9-8v-18h4v29h-4v-4zM638 159h4v41h-4zM658 162l-9 6-1-3 8-6 2 3zm-3 38h-4v-29h4v29zM677 171v4h-8v25h-4v-25h-5v-4h5v-3c0-7 2-9 9-9h3v3h-3c-4 0-5 1-5 5v4h8zM704 179h-5v-1c0-3-2-3-6-3-6 0-8 0-8 3 0 5 1 5 6 5 7 1 14-1 14 9 0 8-6 8-12 8-7 0-13 0-13-6v-3h4v2c0 3 2 3 9 3 3 0 7 1 7-4s-2-4-7-5c-7 0-13 0-13-8s5-8 13-8c5 0 11 0 11 7v1zM716 164h-4v-5h4v5zm0 36h-4v-29h4v29zM729 175c1-4 6-4 9-4 7 0 11 2 11 10v19h-5v-20c0-5-2-6-7-6-7 0-8 3-8 9v17h-5v-29h5v4zM780 179h-4v-1c0-3-3-3-7-3-6 0-8 0-8 3 0 5 1 5 6 5 7 1 14-1 14 9 0 8-6 8-12 8s-13 0-13-6v-3h5v2c0 3 1 3 8 3 3 0 7 1 7-4s-2-4-7-5c-6 0-13 0-13-8s5-8 13-8c5 0 11 0 11 7v1zM773 69c4 3 8 9 8 18v42h-16V90s0-10-6-12c-5-2-11-2-21-2v53h-16V63h27c8 0 16 0 24 6M697 69c5 3 8 9 8 18v42h-16V90s1-10-5-12c-5-2-11-2-21-2h-1v53h-16V63h28c8 0 16 0 23 6M614 34h16v14h-16V34zm0 81V63h16v68c-11 0-16-8-16-16M581 115V34h16v97c-11 0-16-8-16-16M406 81c0-8-4-8-13-8-8 0-14 0-14 9 0 6 2 7 16 7 16 1 30 0 30 22 0 18-15 19-32 19-18 0-30 0-30-21h16c0 9 2 11 14 11 10 0 15 0 15-9 0-6 0-9-16-9-25-1-29-4-29-21 0-19 13-19 30-19 13 0 29 0 29 19h-16zM331 34h16v14h-16V34zm0 81V63h16v68c-10 0-16-8-16-16M110 88c0-11-1-15-14-15-7 0-13 1-13 9H67c0-19 14-20 29-20 5 0 20 0 23 9 3-9 15-9 22-9 28 0 31 8 31 37h-46c0 15 1 19 15 19 9 0 15 0 15-10h16c0 21-12 22-31 22-9 0-21 0-24-10-4 10-16 10-27 10-15 0-25-3-25-21 0-16 8-20 25-20 8 0 16 0 20 8v-9zm-29 21c0 10 4 11 14 11 9 0 15-1 15-11 0-9-7-9-15-9s-14 0-14 9m75-20c0-14-2-15-15-15-14 0-15 3-15 15h30zM307 69c4 3 8 9 8 18v42h-16V90s0-10-5-12c-6-2-12-2-22-2v53h-16V63h27c8 0 16 0 24 6M220 94l28 35h-19l-22-29h-4v29h-16V34h16v55h4l18-26h18zM75 34H0v13h29v68c0 8 6 16 16 15V47h30V34zM455 89h4l18-26h18l-23 31 28 35h-19l-22-29h-4v29h-16V34h16zM565 96c0 26-4 34-32 34s-31-8-31-34 3-34 31-34 32 8 32 34m-47 0c0 18 1 22 15 22s16-4 16-22-2-22-16-22-15 4-15 22m29-52l-24 11-4-7 23-15 5 11zM849 2l-1 7c0 21 1 46 17 66 11 14 37 39 46 56 12 20 17 33 19 45 1 5 2 7 4 7s4-2 5-7c2-14 3-32-2-48-7-22-21-43-46-66-20-20-31-37-34-55l-2-5c-2-3-5-2-6 0"/>
  <path fill="#FFF" d="M958 34c-1-1-4-2-6 0l-1 5c-3 16-12 31-29 48l13 24 8-11c15-18 16-40 16-59l-1-7m-79 114c-5 14-4 30-2 43 0 5 2 6 4 6 3 0 3-2 4-6a135 135 0 0 1 26-54l-16-20c-8 10-13 21-16 31M867 100c-21-19-31-36-34-55l-2-5c-3-2-5-1-6 0l-2 7c0 22 2 46 18 67l32 37c3-10 7-21 12-31l-18-20m46 67l-5-13c-7 8-12 17-15 27 7 14 11 24 13 34 0 4 1 7 4 7 2 0 4-2 5-8 1-14 3-32-2-47"/>
  <path fill="none" d="M-869 297H90v222h-959z"/>
</svg>
