<?xml version="1.0" encoding="utf-8"?>
<!-- Generator: Adobe Illustrator 16.0.3, SVG Export Plug-In . SVG Version: 6.00 Build 0)  -->
<!DOCTYPE svg PUBLIC "-//W3C//DTD SVG 1.1//EN" "http://www.w3.org/Graphics/SVG/1.1/DTD/svg11.dtd">
<svg version="1.1" id="Шар_1" xmlns="http://www.w3.org/2000/svg" xmlns:xlink="http://www.w3.org/1999/xlink" x="0px" y="0px"
	 width="135.496px" height="221.683px" viewBox="0 0 135.496 221.683" enable-background="new 0 0 135.496 221.683"
	 xml:space="preserve">
<g>
	<defs>
		<rect id="SVGID_1_" width="135.496" height="221.683"/>
	</defs>
	<clipPath id="SVGID_2_">
		<use xlink:href="#SVGID_1_"  overflow="visible"/>
	</clipPath>
	<path clip-path="url(#SVGID_2_)" fill="#FFFFFF" d="M25.709,1.515c-1.178,1.966-1.442,3.711-1.452,7.153
		c-0.066,21.54,1.411,45.871,17.316,66.33c10.635,13.683,36.925,39.47,45.995,55.678c11.561,20.662,16.723,33.7,18.916,45.438
		c0.841,4.515,1.798,6.857,4.412,6.857c2.168,0,4.201-1.784,4.897-7.354c1.562-13.942,2.728-31.841-2.159-47.481
		c-6.771-21.71-21.416-42.812-46.089-66.407C47.329,42.39,36.766,25.422,33.378,6.686c-0.413-2.282-0.523-3.5-1.888-5.167
		C29.336-1.114,26.49,0.208,25.709,1.515"/>
	<path clip-path="url(#SVGID_2_)" fill="#FFFFFF" d="M134.191,34.339c-0.702-1.17-3.255-2.355-5.187,0.004
		c-1.226,1.497-1.325,2.594-1.693,4.636c-2.947,16.289-11.965,31.096-29.03,47.784c5.105,8.056,9.348,16.042,12.87,23.851
		c3.461-3.889,6.538-7.433,8.809-10.354c14.266-18.351,15.593-40.183,15.534-59.501C135.484,37.667,135.246,36.107,134.191,34.339
		 M55.313,147.931c-4.382,14.03-3.34,30.084-1.936,42.594c0.624,4.992,2.448,6.599,4.392,6.599c2.347,0,3.204-2.104,3.96-6.153
		c1.967-10.531,6.598-22.224,16.969-40.761c2.134-3.815,5.347-8.225,9.074-12.874c-4.233-6.341-10.075-13.339-16.449-20.451
		C63.8,127.354,58.545,137.566,55.313,147.931"/>
	<path clip-path="url(#SVGID_2_)" fill="#FFFFFF" d="M43.294,100.438C23.074,81.1,12.512,64.131,9.123,45.396
		c-0.412-2.278-0.521-3.5-1.887-5.167c-2.153-2.63-5.001-1.311-5.781-0.004c-1.178,1.967-1.443,3.71-1.453,7.156
		c-0.064,21.537,1.412,45.868,17.318,66.326c7.159,9.213,21.404,23.907,32.724,37.477c3.01-10.006,6.291-20.904,11.976-31.051
		C56.554,113.72,50.347,107.182,43.294,100.438 M89.381,166.845c-1.308-4.187-2.913-8.354-4.823-12.521
		c-6.729,8.01-11.708,16.927-15.264,26.176c7.452,14.508,11.163,24.846,12.934,34.324c0.845,4.517,1.8,6.859,4.417,6.859
		c2.165,0,4.198-1.788,4.895-7.353C93.103,200.384,94.266,182.486,89.381,166.845"/>
</g>
</svg>
