<svg xmlns="http://www.w3.org/2000/svg" width="770" height="900" version="1" viewBox="0 0 204 238">
  <path fill="#fff" d="M91 199v-40l4-4 4-4v-2l3-2 2 2v2l4 4 4 4 1 40v39h-1v-22-40l-1-17-3-3-4-4h-4l-4 4-4 3v79h-1v-39zm33 21l-1-21v-3l3-3 3-2-1-1-1-1-4 4-2 3v42h-1v-21l-1-22 4-3 4-4v-1-2l1-8a5217 5217 0 0 0 0-18v-1h5l1 2 2 1c1-1 3 0 3 1l-1 2-1 1-1-1-1-2-1-2-2-1h-3v3l2 2c0 2-1 3-2 3v2l-1 8v7h3v-3a219 219 0 0 0 0-12v-3h16l1-2 2-2v-1-1c0-2 1-3 3-3l2 2c1 2 0 3-1 4h-3l-2 2-2 2h-15v17h1c2 2 2 5 0 6l-2 1h-1l-3 3-3 2v8l1 21v13h-1zm-45 6v-30l-2-3-3-2h-1c-2 0-3-2-3-4l1-3h1v-9l-1-8H57l-2-2-2-2h-1l-2-1c-3-1-2-5 1-5 2 0 4 2 3 4 0 1-1 1 2 3l1 2h15v2a178 178 0 0 1 1 12v3l2 1a550 550 0 0 0-1-21l1-1v-3h-3l-2 1-1 2-2 3c-2 0-3-2-2-4h3l2-2 1-1h5v3l1 1 2 3-2 2-1 1v4a9571 9571 0 0 1 1 15l4 4 3 4v43h-1v-42l-1-1-3-4-2-2-1 1-1 1 3 2 2 2v43h-1zm17 11a25599 25599 0 0 1 1-74v-1l1-2 2-1h-1c0-2 1-5 3-4 2 0 3 2 2 4l2 2v1l1 37v39h-1v-3-38l-1-35v-1l-2-1h-2l-1 1-1 1-1 73v3h-2v-1zm-10 0a1871 1871 0 0 1 0-48l-1-5-2-1a5 5 0 0 1 2-8h1v-6a722 722 0 0 1 1-16l5-4 5-5v-20-37l1-2 2-2 2-1h1l1 1 1 3 2 1v57l4 5 5 4h2c2 0 3 4 1 5l-1 1v16h1l2 1c2 2 2 4 0 6l-2 2h-1v5a4639 4639 0 0 0-1 49v-4a5820 5820 0 0 1 0-48v-2l-3-3c-1-2 0-5 2-6h1v-4-13l-2-1v-3l-2-3-5-5-2-2v-2-54l-1-2-2-1h-2l-2 1-1 2v56l-5 5c-5 5-5 5-4 6 0 1 0 3-2 3h-1l1 4v13l3 2v2c0 2-1 4-3 5v54h-1zm-40-59l-1-2v-1l-2-2-2-3-1-1h-7a252 252 0 0 0-8 1c-1 1-2 2-3 1l-2-2 2-2c1-1 3 0 3 1l1 1h1l12-1h1l2 2 5 5 1 2-1 1h-1zm110 0l-1-1 2-2 3-2 3-3 1-2 6 1h8c1-2 2-2 3-2s2 0 2 2c0 1 0 2-2 3l-3-2h-7l-7-1-3 3-2 3v3l-1 1-2-1zm0-5c-2-1-2-4 1-4l3-3 4-3h5l10 1h4v-1l2-1h1l2 2-2 3-3-2h-3l-9-1h-7l-2 2-3 3-1 1v3h-2zm-110 0v-3l-3-3-3-3H28l-7 1-2 2-2-1-1-2 2-2c1-1 2 0 3 1h19l3 3 5 3 1 1v3h-2-1zm18-1l-1-1-7-1h-6l-6-6-5-5H18v1l-3 1c-3-1-3-5 0-5l3 2h21l4 4 6 5 1 2h6a739 739 0 0 0 8 3zm74 0c-2-1-2-3-1-4h4v1h12l6-6 5-5h22l2-2c2 0 3 1 3 3l-1 2c-2 1-3 0-4-1v-1h-21l-6 5-5 6h-7l-6 1h-1l-2 1zm-80-10l-1-3h4l1-1 1-1h2l1-1c2-2 4 0 3 3h-3l-1-1h-2l-1 1-1 2-1 1h-2zm86 0l-1-1-1-2-1-1h-2-1c0 2-2 2-3 1l-1-1c0-2 1-3 2-3l2 1 2 1h1l1 1 1 1h1c1-1 2 0 3 1s-2 3-3 2zm48-6l-1-1h-68l-7-7-7-7v-5-49l-3-3-4-4h-1l-1 1-3 3-2 3v27l-1 27-6 7-7 7H12c0 2-4 2-3-1 0-1 2-2 3-1l1 1h68l6-7 7-6v-18-36l3-4 3-3v-1l1-2h1l2 2v1l3 3 3 4v54l7 6 6 7h68l1-1h2c2 1 1 3 0 3h-2zm-182-5c-1-1-1-2 1-2h1l1 1a2871 2871 0 0 0 59 0h7l6-6 5-5v-28l-2-2-2-2v-5l-1-3v-2l4-2h1v-1l-1-5v-5l1-1a1347 1347 0 0 0 7-8h1l-1-1c-1-3 0-7 3-8l2-1 2 1c2 0 3 2 3 3a5 5 0 0 1-8 6l-1 1-8 9 1 5v6l1 1 1 2c0 3-2 4-5 4h-1v4l2 2 2 1v29l-5 5-6 6v1H46a547 547 0 0 0-36 0zm94-77l2-3-2-4c-3-1-6 1-6 4l2 4h2l2-1zm88 77h-68l-6-6-5-6v-29l2-1 1-2v-4h-1c-2 0-4-2-4-4l1-3 1-1v-5l1-6h-1l-4-5-4-4h1l4 4 5 5-1 5v6h1l3 1 1 3-1 3h-1v6l-1 1-2 2v28l5 5 6 6h3a12713 12713 0 0 0 64 1zm-126-2l-1-2c-1-1 0-3 2-4v-1-5l5-5 6-5h3c0-2 1-3 2-3h1v-6c-1 0-2-1-2-3l1-2h3l2 2c0 2-1 3-2 3h-1v6h1l1 3-1 1c0 1-3 2-4 0h-3l-6 5-5 5v2l1 3 1 1c1 1 1 3-1 5h-3zm69 0l-2-3 2-3 1-3v-2l-5-5-6-5h-1l-3 1h-1l-3-1v-1l1-3h1v-6h-1l-2-2 1-2c0-1 2-2 4-1l1 2c0 2-1 3-2 3v6l2 3h4l5 5 6 6v5l2 2v2l-2 2h-2zm-89-4l-2-2v-1H33l-1 1-1 1c-1 1-3 0-3-1l-1-1h-6l-7 1c-1 1-3 0-3-1v-2l2-1 1 1 1 1v1l7-1h5c1-2 3-3 5-2l1 2h11v-1c1-1 3-2 5 0l1 2-1 2-3 1zm110 0l-2-3 1-2 2-1 3 1v1h11l1-1h4v1h3l6 1h4v-1l2-2 2 2c0 1-1 3-3 2h-7l-7-1v1c0 1-2 2-3 1l-2-1-3-1h-8v1l-2 1-2 1zm-85-3c-2 0-2-3 0-4s4 0 4 1l2 1h1l1-1 4-4v-2l2-2h2c2 2 2 4 0 5h-3l-3 3-2 2h-4l-1 2-3-1zm59 1l-1-2h-2l-4-2-3-3h-1c-1 1-2 0-3-1l-1-1 1-2 2-1c2 0 4 2 3 4l2 3 5 2 1-1c0-2 3-2 4 0 1 1 1 3-1 4h-2zm-80-1v-1h9l10-10 11-11V83l4-4 4-4h-1c-1-2-2-4 0-6l2-1h1v-4-5-3l2-1v-6l1-1 1-1v-2c1-2 3-2 4-1 2 1 1 5-2 4h-1l-1 1-1 1v1l1 4c1 0 2 1 2 3s-2 4-4 3l-1 4v4h1l1 5-3 1-5 4-4 4v37l-11 11-11 11h-9zm84-11l-11-11v-9-28l-4-4-5-4c-2 0-3-1-3-3l1-3v-4l1-4h-1c-2 1-4-1-4-3-1-1 0-3 2-3l1-4v-1l-1-1-1-1h-1c-2 1-4 0-4-2l2-3c3 0 4 2 4 4h-1l2 1 1 1v3 3l2 1v3l-1 5v4h1l3 1 1 4-2 2 4 4 4 4v37l10 11 11 10h9v1h-9zM8 136l-2-2 1-1 1-1 2 1h25l25 1 7-7 8-9 1-1V67c-1-1-2-2-1-3 1-2 3-1 4 0l-1 2-1 1v51l-8 8-8 8H38a2430 2430 0 0 1-30 2zm187 0l-1-1v-1h-19l-25 1h-7l-8-9-8-8-1-26V64l1-1h2v3l-1 1-1 16 1 25v9l8 8 8 9 25-1h25l2-1 1 2v1l-2 1zm-94-3l-1-1 1-2v-1-13l1-12h-1l-1-1v-1c1-2 3-2 4 0l-1 2v5l-1 13v8h1v3h-2zm-95-2l-1-1 1-2c1-1 2 0 3 1h49l8-8 7-7v-3a2784 2784 0 0 1 1-38v-1h-1c-1 0-2-3-1-4s2 0 3 1v24l-1 21-2 2-13 14H9l-1 1H6zm190 0l-1-1h-49l-9-8-7-8-1-21a164 164 0 0 0-1-24c1-1 3-2 4 0v2l-2 1v25l1 17 4 5 8 7 3 3h49l1-1h1c2 0 3 2 1 3l-1 1-1-1zm-167-3l-1-1v-4l2-1h2l1 2v1h5a415 415 0 0 0 16-1c1 1 0 2-1 3l-3-1H33l-2 2h-2zm143 0l-1-1v-1h-18l-1 1c-2 0-2-1-2-2s0-2 2-2l2 1v1h17v-1l2-2h1l2 1c2 3-1 6-4 5zm25-5h-1l-1-1a3417 3417 0 0 0-55-1l-2-3-3-3v-4h-1l-1-1v-3l1-1h1v-6l2-2 2-3v-9-11l-1-2v-2h2l2 2-1 2c-1 0-1-1-1 10v11l-2 2-2 3v5h1l1 3-2 2v3l2 3 3 3a456 456 0 0 0 51 1h4c1-2 3-2 4-1 1 2-1 4-3 3zM5 123l-1-1v-1c0-1 2-2 3-1l1 1 25-1h30l2-3 3-3v-3h-1l-1-2 2-3v-5l-2-3-2-2V85l-1-10-1-3c1-2 3-2 4 0 1 1 0 2-1 3h-1l1 1v19l2 3 2 2v6l2 1v2l-2 2v4l-3 2-2 4H38a7789 7789 0 0 1-33 2zm42-4l-1-1H31l-21-1H5l-1 1-2 1-1-2v-1l2-1 1 1h19l21 1h2v-1l1-2h3v1l2-2 4-4v-3l2-1v-1-28l-1-1v-1-1l2-1 2 2-1 2-1 8v21h1c2 1 2 3 1 4s-2 2-3 1h-1l-3 3-3 3-1 3h-3zm107 0l-1-1v-2l-3-3-3-3h-1-1c-2 0-3-1-3-3l2-2h1v-7l-1-14v-8c-1 0-2-2-1-3h4v1l-1 2h-1v13l1 16 1 1 1 3 2 3 3 3 1-1h2l2 2v1h13a396 396 0 0 0 32 0l-1 2-3-1v-1h-3l-21 1h-17l-1 1h-3zm23-4l-1-1h-19l-4-5-4-4v-4a2118 2118 0 0 1 1-37h-1v40l2 2 4 4 3 3h18l1-2h3l1 2h16l2-2 2 2-1 2-3-1h-16c-1 1-3 2-4 1zm-153 0l-1-1H6l-2 1-1-3c1-2 3-1 4 1h16v-1l1-2h3l1 2v1h18l3-3 4-5 1-1V64l-1-2c0-2 3-2 4-1l-1 3v3l-1 20v18l-2 2-4 4-2 3H28c-1 1-3 2-4 1zm-18-7l-1-1 1-2h1l-1-1-1-1 2-1h38a1122 1122 0 0 0 1-28v-2l-1-1c-1-1-1-3 1-3s3 2 2 3l-1 1a361 361 0 0 0-1 31H27l-19 1H7v1l1 1h5a4864 4864 0 0 1 36 0 2435 2435 0 0 0 0-42c1-1 3 0 3 2l-1 2a16132 16132 0 0 0-1 39 4037 4037 0 0 1-44 1zm190 0l-1-1a27587 27587 0 0 0-41 0 1320 1320 0 0 1 1-39h-1v3a3836 3836 0 0 1 1 35h41v-1l1-1h-21l-19-1v-1a1682 1682 0 0 0 0-29v-1l-1-1v-3c1-1 3 0 3 1 1 1 0 2-1 2v3a4027 4027 0 0 1 1 28l18 1h18l1-1h1l1 1-1 1v1h1l1 2c0 1-1 2-3 1zm3-6v-1h-3a615 615 0 0 0-14-1l-11-10-11-11v-8l1-7-1-1c-2 0-2-2-2-3 0-2 0-3 2-4v-1l1-1-1-1v-4c2-1 4 2 3 3l-1 1-1 1v1l1 1c2 0 3 1 3 2v3c0 2-2 3-3 3l-1 7v8h1l19 19 1 1h9l8 1v-1h1c2 0 2 3 0 3h-1zM3 101c-2-1 0-3 2-2v1l8-1h9l7-8 11-10 3-3v-6a806 806 0 0 1-1-8l-2-1c-3-3-2-7 2-7v-2-1l-1-1 1-2 1-1 1 1v3l-1 1v1l1 1c2 1 3 3 2 5l-2 2-1 1v1a348 348 0 0 0 1 13v1L34 89 23 99l-1 1h-7l-10 1H3zm32-1v-2h1l2-2 2-1v-3l-1-3-1-3c2-3 5-2 5 1l-2 2v6l-2 2-2 2c0 1-1 2-2 1zm132 0l-1-1-1-2-2-2v-2-3c-2-1-3-3-2-5l2-1c3 0 4 3 2 5l-1 3v3l2 1 1 2h2v2h-2zm-97-1l-1-1v-2l1-1v-3-8l-1-1h-1l-2-1c-1-1 0-3 2-3 1 0 2 1 1 2l1 2h1v12h1l1 2-3 2zm62 0v-4h1V84l1-1v-1l1-2 1-1 2 2v1l-1 1h-3v12c1 1 2 2 1 3l-3 1zm65-1l-1-1h-6l-6-1h-1l-9-10-10-8v-4-4l-1-2c-1-1 1-3 3-2v11l6 7 10 9 2 2 5 1 7-1h3v2c0 1-1 2-2 1zM5 98v-4h1l2 1v1h7l4-1 1-1 10-9 8-8v-8l-1-1 1-2h1l2 2-1 2h-1v8l-9 9-10 9-6 1H8l-2 1H5zm196-3l-1-1h-13l-10-9-9-9V66h-1v-1-2h1c2 0 2 0 2 2l-1 1v9l9 9 9 9h13l1-2c2-1 3 1 3 3l-3 1zM1 95l-1-2 1-2h2l1 1v1h13l9-9 9-9v-1-8l-2-2 1-1c1-1 3 0 3 2v1h-1v10l-8 8-10 9-1 1H3l-1 1H1zm195-4l-1-1h-6l-9-8-9-9 1-2v-2h-1v-1c0-2 0-3 2-3l1 1 1 1-2 2v4l8 8 9 8h3l2 1v-1l1-1c1-1 2 0 3 1v2h-3zM6 91c-1-1-2-2-1-3l2-1 1 1 1 1h5l9-8 8-8v-1-3l-2-2 1-2h2c1 1 2 3 0 4v4l-8 9-10 8H9l-1 1H6zm190-9v-1h-3l-2 1-2-2-1-1h-1l-3-1-1-3v-1l-1-1h-4l-2 2-2-2c0-2 1-3 2-2h2v1h5l1 1h4c1 1 2 3 1 5l1 1 1 1h4v-1h4v2l-3 1zM6 82l-1-2c0-1 0-2 2-2l1 1 3 1h2l1-1 1-1v-1c-1-1-1-3 1-4h4l1-1h5v-1h3l1 1-1 2h-1l-2-1h-5v4l-3 2h-2l-1 1-2 1H8l-1 1H6zm2-5l-1-2 1-2 3 1 4-3 4-4h2l2-1h1l1-1 2 1v1l-1 2-2-1h-5l-4 4-4 4-3 1zm185 0v-1l-1-1-4-4-4-3h-2l-2 1h-2c-2-1-2-3 0-4 1 0 2 0 2 2h5l4 4 4 3 2-1 2 2c0 2-2 3-4 2zM66 70l-2-2v-1s1 0 0 0l-1-2-2-2a487 487 0 0 1 1-15l2-2v-1l1-2c1 0 3 0 3 2 1 1-1 2-2 2l-3 1-2 2 1 7v6l2 1 1 2h1l2 2-2 2zm70 0v-2-1l2-1h1l1-2 2-2a380 380 0 0 1 0-11v-1l-1-1-2-2h-3c-1-2 0-4 2-4 1 0 2 1 1 2v1l2 2 2 2v13l-2 2-2 3c1 1 0 2-2 2h-1zM14 67l-1-2c0-1 1-3 3-2h1l2-1h3c2-1 3 0 3 1l-2 2-1-1-2-1h-2l-1 1v1l-1 1-1 1h-1zm174 0l-1-2-1-1-2-1-2 1c-1 1-3 1-3-1 0-1 1-2 3-1h3l1 1h2l3 1-2 3h-1zM82 66l-1-1v-1l-4-4-4-5 1-17 11-12v-3-1l1-1-1-6V9l-2-3 1-2c2-1 4 0 5 2 0 1-1 3-3 3v8l1 4c2 0 3 2 3 3 0 2-2 3-3 3l-1-1-5 6-6 6-1 9v8l4 4 4 4h1l1 1v2h-2zm38 0c-1-1 0-3 1-3l6-5 3-3v-8l-1-8-6-7-5-6-1 1-2-1c-2-2-1-4 1-5h1v-5l1-6V9h-1l-2-3c1-2 2-2 3-2l2 2-1 2v1l-1 6v6l1 1v4l5 6 6 6 1 9v8l-2 3-5 4-2 2 1 1-1 1h-2zm12 0l-1-3 2-1h2v-1a287 287 0 0 0-1-9c-1 0-2-2-1-3s3-1 3 1v2h-1l1 5a434 434 0 0 1 0 6h-1v1c0 1-1 3-3 2zm-62 0l-1-2-1-2-1-1a1492 1492 0 0 0 4-12v3h-1-1a67 67 0 0 0-1 9l1 1h3l1 2c0 2-1 2-2 2h-1zm17-1l-1-1v-1l-4-4-5-4v-3-12l3-3 3-3v-1c-1-1 0-3 2-3l2 2-1 1-2 1-3 3-3 3v14l4 4 5 4 2 1v2h-2zm28 0c-1-1 0-3 1-3l5-4 5-4V40l-3-3-3-3h-1l-2-2 1-1h3v3l3 3 3 3v15l-5 4-4 4v1l-1 1h-2zm-85-2l-2-2v-1h-9l-1 1h-2c-1-1 0-3 1-3l1 1h6a20 20 0 0 0 6 0l1 1 1 1-1 2h-1zm143 0l-1-2 1-2h12c1-1 3-1 3 1 0 1-2 2-3 1v-1h-8l-1 1c0 2-2 3-3 2zm-87-3c-1-1-2-1-1-3v-1l-2-1-2-1v-3-11l1-1 2-2c0-1 0-2 2-1l1 1-2 2-2 1-1 1v12l2 1 1 2h1l2 1c1 1 0 3-2 3zm30 0l-1-2 1-2h2l2-1 2-3V41l-1-1-2-1-2-2c0-1 2-2 3-1v2l1 1 2 1v14l-2 1-2 2v2l-2 1h-1zm54-1c-1-1-2-2-1-3 0-1 2-2 3 0h11v-1c0-1 2-2 4-1v3h-3-11l-1 1-2 1zM32 58h-1l-3-1H18l-1-1c0-2 1-2 2-2h1l1 1v1h10l1-1c1-1 3 0 3 1v1c0 2-2 2-3 1zm19 0h-1v-3l-1-3-2-3c-2-1-3-3-1-4s3 1 2 3l1 1 1 3 2 2 2 2c0 2-2 3-3 2zm100 0l-1-1v-1l1-1 1-1h1v-1l2-3 1-2h-1c-1-2 1-4 3-3l1 1c1 1 0 3-2 3l-1 1-2 3-1 2h1v2l-3 1zm-33-4l-2-2v-2h-1v-1-4l-1-1-1-1h-3c-1-1-2-1-1-3l-3-3-3-3h-2l-3 3-3 2v1c0 2-1 4-3 3h-1l-3 2 1 2v2l-1 1v1c0 1-1 3-3 3l-2-2v-2c0-1 2-2 4-1h1v-2l-1-2 2-1 1-2c0-2 0-3 2-4l2 1 3-3 3-3 2-2 2 2 2 3 3 3 1-1c2-1 4 1 4 3v1l1 2 2 1-1 2v2h4l1 4-3 1zm59-1l-1-1h-7l-3-3-4-4-2-1c-1-2 1-3 3-2l1 1-1 1 3 4 4 3h5l1-1 1-1 2 1v2l-2 1zM25 53v-3l2-1 1 2h6l3-3 4-4h-1l1-2 1-1 2 1v3h-3l-3 3-3 4h-7l-3 1zm28-4v-3l1-1 9-8 10-11 2-1-1-5a225 225 0 0 0-1-7l-1-1 1-2 1-1c1 0 2 1 2 3l-1 1v6l1 6-18 18-2 3v3h-3zm95 0v-3l-1-1-17-18-2-2 1-5a468 468 0 0 1 3-10l-1 3-1 1v6l-1 5 1 1a866 866 0 0 0 21 23h-3zM26 49l-1-1c0-2 2-4 4-2l2-1h1v-5h5l1-1 1-2 2 1h4v2h-1l-2-1h-2l-1-1-1 2v3c-1 2-2 3-4 3h-3l-2 1c0 2-2 2-3 2zm149-1v-1l-2-1h-3l-4-2v-3l-1-1v-2l-2 1h-1c-1 1-2 2-3 1v-1c0-1 1-2 2-1h2l2-1 1 1 2 2c2-1 4 0 4 3v2h1l2 1c2-2 4 0 4 1l-1 1-1 1-2-1zM27 44l-1-1 1-2h3l3-4 4-4h6c0-1 1-2 2-1 1 0 2 2 1 3l-2 1-1-2h-6l-3 4-4 5c0 1-2 2-3 1zm148 0l-1-1-4-5-3-4h-2-4v1h-1c-1 1-3-1-2-2 0-2 2-2 3 0h6l3 4 4 4h3l1 2-2 2-1-1zM51 44V33l-1-10v-1l-1-1c0-2 1-2 2-2h1l1 2-1 1-1 1a721 721 0 0 0 0 21zm101-2V32l1-9h-1l-1-3c1-1 2-2 3-1l1 2-1 1v1l-1 10a1311 1311 0 0 0-1 11zm-98 1l-1-2v-1h3l7-7 7-8v-5l-1-5-1-1c0-2 2-3 3-2v3h-1l1 5v6l-7 7-8 7v1c1 1-1 3-2 2zm94 0l-1-2-7-8-7-7V12h2v3l-1 5v5l6 6 7 7 1 2 1-1c1 0 3 1 2 3 0 1-2 2-3 1zM47 39l-1-1v-2l1-5v-5h-1c-2-2 0-4 3-3v3h-1v7l-1 3h1c1 0 2 2 1 3h-2zm108 0l-1-1 2-2v-4a201 201 0 0 1 0-6l-2-2 2-1h2v3h-1v5l1 5v3l-2 1-1-1zm-11-4l-1-2-2-3-3-3V16l-2-2c0-1 1-2 3-2s2 3 0 4v10l2 3 3 3h1c2-1 3 3 1 3h-2zm-87 0v-2c0-1 1-2 2-1h1l2-3 3-3V16l-2-2 2-2c2 0 2 1 2 2l-1 2v11l-3 3-2 3-2 2h-2zm38 0l-1-3c1-1 2-2 3-1l3-2 2-2 2 2 3 2h2l1 2c-1 2-3 2-4 1v-2l-2-2-2-2-2 2-2 2v2l-3 1zm54-5l-2-2-1-2-1-1v-6l-1-2c0-2 2-3 4-2l-1 4-1 1v5h1l1 1h1l1 1 1 1-1 2h-1zm-96-1v-1l1-2h2l1-1h1v-3l-1-3-1-2 1-2h2l1 1-1 2-1 1 1 3v3l-1 1-1 2-1 1-1 1-2-1zm52-1l-1-2-1-1-1-1-2 2c0 2-1 2-2 2s-2 0-2-2l3-2h1l1-1 1-1-1-5v-5l-1-2-2-2-2-2h-1l-1 1a248 248 0 0 1 0 4l2 1 2 1-1 2v4h-2c-1-1 0-2 1-2v-2l1-1-2-1h-2l-2-1 1-2 1-2V6c-2-1-1-3 1-3h2v2l2 2 3 2h3l2-2 2-2c0-2 0-2 2-2 1 0 2 0 2 2l-1 1v2l1 2 1 1c0 1 0 2-2 2h-2l-2 2 1 2h1c1 1 0 3-2 3l-1-2 1-1-1-2v-2l2-1 2-1V9l-1-2V6l-3 2-2 2-1 2h-1v10l1 1 1 2 1-1 3 2c0 2-1 3-2 3l-1-1zm-23-8c-1-1-2-3-1-4l1-1v-3l-2-4-1-1V5h2l1 2 1 4a332 332 0 0 1 0 9h-1zm38 0l-1-1 1-3 1-1v-3l1-5V6c1-2 3-1 3 0l-2 2a127 127 0 0 0-1 8l1 1c1 2-1 4-3 3zM102 7a46 46 0 0 0-5-4l-1-1V1l2-1 1 2-1 1h1l2 2 1 1 2-2 1-1V2l2-2c2 0 2 3 0 3l-5 4z"/>
</svg>
