<svg xmlns="http://www.w3.org/2000/svg" width="770.1" height="900.4" viewBox="0 0 203.8 238.2">
  <path fill="#fff" d="M91.2 198.6l.1-39.6 4.1-4c3.8-3.7 4-4 4-4.3-.3-.4-.3-1.5 0-2 .3-1 1.4-1.8 2.5-1.8s2.2.7 2.6 1.7c.2.6.2 1.7 0 2-.2.4.2.8 3.9 4.5l4 4 .2 39.6.1 39.5h-1.1v-22.7-39.3l-.2-16.7-3.9-3.8-3.9-3.8-.5.2c-.7.4-1.6.4-2.4 0l-.6-.2-3.9 3.8-3.9 3.8v39.4l-.2 39.3h-1l.1-39.6zm32.4 21.4l-.2-21.3v-3.1l2.5-2.5 2.6-2.4-.6-.6-.8-1c-.2-.3.1-.6-3.8 3.6l-2.8 3 .1 21v21h-.9l-.1-21.1-.1-21.3 3.5-3.8 3.5-3.8.1-.8.5-1.5c.3-.5.3-.8.4-8.7a5216.5 5216.5 0 0 0 0-9.1l-.8-.3c-1.7-.8-2-3.4-.5-4.6.3-.2.7-.4 1-.4.4 0 .4-.2.5-.8l.1-2V158h2.5l2.5.1 1.5 1.5c1.1 1 1.6 1.4 1.8 1.4 1.3-.6 2.7.1 3 1.4.2.6-.1 1.5-.6 2-.4.4-.6.4-1.4.4-.9 0-1 0-1.4-.4a2 2 0 0 1-.6-2l.1-.5-1.5-1.5-1.5-1.4h-3.4v1.6l-.1 1.6.4.2c.6.4 1.3 1.2 1.5 1.8.2 1.3-.4 2.6-1.4 3-.5.3-.5.3-.6 1.8l-.1 8.2-.1 6.7h.3c1-.3 1.6-.5 2-.4h.3l.1-2.8a219.5 219.5 0 0 0 .2-12.1l.1-3h15.2l1.8-1.8 1.9-1.8-.4-.8a4 4 0 0 1-.3-1.1c0-1.8 1.7-3.3 3.4-3 1.3.2 2.1 1 2.4 2.2.4 1.3-.2 2.7-1.5 3.3-.9.4-1.4.5-2.2.2l-.6-.2-2 2-2 2h-14.7v.4c-.1.2-.2 4-.2 8.6l-.1 8.2.7.6a3.7 3.7 0 0 1 0 5.6c-.7.7-1.1.9-2.3 1l-.9.1-2.6 2.4-2.6 2.5v8l.2 21 .1 13.2h-1zm-44.4 6.1l.1-21.1.1-9.1-2.6-2.5L74 191h-.8a3.6 3.6 0 0 1-3.6-3.7c0-1.3.4-2 1.3-2.9l.7-.6-.1-8.6-.1-8.6H56.6l-1.9-2-2-2h-.4c-.8.4-2.2.2-2.8-.3-2.3-1.7-1.2-5.3 1.7-5.3a3 3 0 0 1 2.6 4.4c-.3.5-.4.3 2.2 3l1.2 1.2h15.2v2.5a177.5 177.5 0 0 1 .3 12.1v3.3h.8c.3 0 1 0 1.2.2l.7.2-.2-15.4c-.1-1-.1-1-.7-1.4-1.7-1-1.7-3.5 0-4.5l.6-.4V159h-3.5l-1.5 1.4c-1.5 1.4-1.5 1.4-1.4 1.9.4 1-.4 2.3-1.5 2.5-2.1.4-3.4-2-1.9-3.5.5-.5 1.6-.7 2.2-.4.4 0 .6 0 2-1.4l1.7-1.6H76v3.1c.2 1 .2 1 .7 1.2 1.1.4 1.9 1.4 1.9 2.6 0 1.3-.8 2.2-2 2.6l-.5.2.1 4.1.2 8.6c0 4.4 0 4.5.4 5.3.2.4.4 1 .4 1.4 0 .6 0 .7 3.6 4.4l3.5 3.9v13.4l-.1 21.3v7.8H83l.1-21 .1-21.1-1-1.2-3.3-3.4-2-2.3-.5.6-.8.9c-.3 0-.4.2-.4.3l2.6 2.4 2.5 2.4v4.2l-.2 21.4v17H79zm17.3 10.6a25598.6 25598.6 0 0 1 .9-73.4v-1.7l1-1.2 1.2-1.3-.2-.5c-.9-2 .7-4.1 2.8-3.9 1.9.2 3 2.2 2.2 4-.2.5-.3.4 1.3 2.1l.7.8.5 37.4.4 38.2v.7h-1v-3l-.5-38-.4-34.8-.7-.9c-1.2-1.3-1.3-1.4-1.7-1.2-.4.2-1.6.3-2.2 0-.4-.2-.4-.1-1.3.8l-1 1-1 73.5v2.6h-1v-1.2zm-10.5-.1l-.2-22.1-.2-25.8-.1-5h-.8a4.6 4.6 0 0 1 .2-9l.8-.2-.1-5.9-.1-8c0-2 0-2.2-.3-2.3-.5-.1-1.2-.8-1.4-1.3-.3-.6-.3-1.8 0-2.3.2-.6.7-1 1.2-1.3.5-.3 1.8-.3 2.2-.1.3.2.7-.2 5-4.8l4.8-4.9-.1-19.9-.1-28.2V87l1.6-1.7c1.4-1.4 1.6-1.7 1.7-2.2.1-.9 1-1.6 1.8-1.6.6 0 .8.1 1.2.5.4.4.5.6.6 1.1 0 .7.1.8 1.7 2.4l1.7 1.7-.1 28.2-.2 28.2 4.7 4.9c3.8 4 4.7 4.8 5 4.8a8 8 0 0 1 1-.2c2.8-.2 3.9 3.5 1.5 5l-.7.4v2.4l-.1 8v5.7h.6c.9.1 1.7.6 2.5 1.3a4.6 4.6 0 0 1 .2 6.2c-.6.7-2.1 1.6-2.8 1.6h-.4v5.3a4638.5 4638.5 0 0 0-.5 48.2c-.1.4-.2.5-.5.5h-.5v-3.5a5820.3 5820.3 0 0 1 .5-48.1v-2.4l-.6-.2a4.6 4.6 0 0 1-.2-8.7l.5-.2.1-3.5.2-8.1v-4.6h-.3a3 3 0 0 1-1.7-1.3c-.4-.7-.5-2 0-2.6l.2-.4-2.6-2.7-4.8-5-2.3-2.4v-2.3l.2-28.2.1-26-1.5-1.4c-1.5-1.4-1.5-1.4-2-1.2-.4.3-1 .2-1.6 0l-.4-.3-1.5 1.5-1.4 1.4.1 25 .2 28.1v3.3l-4.9 5c-4.7 5-4.8 5.1-4.6 5.5.8 1.5 0 3.3-1.4 3.8l-.6.2v3l.1 8 .1 5.1.7.3c1 .3 2 1.3 2.5 2.3.3.7.4 1 .4 2 0 2.2-1.2 3.8-3.5 4.5-.3 0-.3-2 0 25.2l.2 25v3.9H86zm-40.4-58.3c-1-.4-1.4-1.9-.8-2.8l.3-.4-1.7-1.9-2.8-2.9-1-1-6.7.2c-3.8 0-7 .2-7.2.2l-.6.6c-.8 1.1-2.4 1.5-3.4.8a2.4 2.4 0 0 1-1.2-2.2c0-1 .3-1.6 1-2 1.5-1 3.2-.4 3.8 1.2l.3.7 1.8-.1 11.8-.4h1l1.7 2c4 4.1 4.1 4.3 4.7 4.3 1 .2 1.8 1 1.8 2a2 2 0 0 1-1.1 1.7c-.7.3-1 .3-1.7 0zm110.9 0c-.6-.2-1-1-1-1.7 0-1 .8-1.9 1.8-1.9.4 0 .7-.3 2.3-2l3-3.2 1.2-1.2 6.6.2c8.4.3 7.9.3 8 0 .4-1.3 1.2-2 2.4-2 1.5 0 2.4.8 2.5 2.3 0 1.4-.7 2.4-2 2.7-1 .2-2.2-.4-2.8-1.4-.1-.3-.8-.3-7.2-.5l-7.1-.2-2.8 3-2.7 2.8.3.4c.2.2.3.6.3 1 0 .7-.1.9-.5 1.3-.4.5-.6.6-1.2.6l-1.1-.1zm-1-5.2c-1.8-.9-1-3.7 1-3.7.5 0 .9-.4 3.9-3.1l3.4-3h5.5l9.4.2 4 .1.2-.6c.4-.9 1-1.3 2.1-1.3.8 0 1 0 1.4.3.9.5 1.2 1.2 1.2 2.1 0 1.4-.7 2.3-2 2.5-1 .2-2.4-.5-2.7-1.5l-.2-.5h-2.3l-9.3-.2-7-.1-2.2 2-3 2.8-1 .8.4.6c.3.7.2 1.4-.2 2a2 2 0 0 1-2.5.6zM46.4 173c-.9-.5-1.2-2-.7-2.8l.3-.4-3.2-2.8-3.1-2.9-2.3.1-9.2.2-6.9.1-.3.6c-.4 1-1 1.3-2.1 1.4-.8 0-1 0-1.4-.3-.8-.5-1.2-1.2-1.2-2 0-1.5.8-2.5 2.2-2.6.8-.1 1.9.3 2.3 1l.5.7c0 .2 1.2.2 9.5 0l9.3-.1 3.4 3c3.3 3 3.4 3 4.1 3.2.6 0 .9.1 1.3.6s.5.6.5 1.3c0 .7 0 .8-.6 1.3-.5.6-.6.6-1.3.6-.4 0-.9 0-1.1-.2zm18.2-1.2a3 3 0 0 1-1-.7l-.5-.6-6.5-.4-6.6-.3-5.4-5.5L39 159l-7.2.1-10.5.2-3.5.1-.2.5c-.4 1-1.8 1.7-2.9 1.4-2.9-.8-2.4-5 .6-5 1 0 2 .7 2.4 1.6.1.5-1.2.5 12 .3l9.7-.2 3.9 3.8c2 2.2 4.6 4.6 5.5 5.5l1.6 1.6 6 .3 6.3.4.3-.6c0-.4.2-.7.7-1 1-1 2.2-1 3.2-.2.6.6.8 1.2.8 2a2.3 2.3 0 0 1-3.2 2.1zm73 0c-1.3-.6-1.8-2.4-1-3.6 1-1.4 3-1.3 4 .1l.4.9c0 .3 0 .3.9.3l6.3-.3 5.4-.4 5.4-5.4 5.5-5.4h6.6l10.8.2h4.2l.3-.6c.4-.8 1-1.2 2-1.3 1.5-.1 2.6.8 2.7 2.3 0 1.2-.4 2-1.3 2.4-1.3.7-2.7.2-3.4-1l-.4-.7h-2.3L173 159l-8.2-.1-5.4 5.4-5.4 5.4-6.6.4-6.6.4-.4.5c-.8.9-1.9 1.2-2.9.7zM58 162.3a2 2 0 0 1-.7-2.8 2 2 0 0 1 2.8-.7l.4.3 1-1.3 1-1.2h2.8l.6-.6c1.8-1.8 4.5.3 3.3 2.6-.4.9-1.7 1.2-2.8.7-.5-.2-1-1-1-1.4 0-.2-.3-.3-1.2-.3H63l-1 1.3c-.8 1-1 1.4-1 1.7a2 2 0 0 1-1 1.7 2 2 0 0 1-2 0zm85.7 0a2 2 0 0 1-1-1.7c0-.3-.2-.7-.9-1.6-.5-.7-1-1.3-1.2-1.3h-1.1c-1 0-1 .1-1.1.6-.6 1.5-2.6 1.8-3.6.6-.4-.5-.5-.7-.5-1.3 0-1.4.8-2.2 2.1-2.2.7 0 1.5.4 1.8 1 .2.4.2.4 1.6.3h1.5l1 1.2 1 1.2.5-.3c1-.5 2.2-.2 2.7.8a2 2 0 0 1-2.8 2.6zm48.7-6a2 2 0 0 1-1-1l-.2-.5h-68.4l-6.7-6.7-6.7-6.8v-5.1l-.2-27.1V87l-3.2-3.3c-3.1-3.4-3.2-3.4-3.7-3.3a2 2 0 0 1-.9 0c-.4-.2-.5-.1-1.1.5l-3.2 3.4-2.5 2.7v27l-.1 27-6.8 6.9-6.7 6.8H46.8l-34.1-.1-.3.5c-.8 2.1-4 1.3-3.8-1a2 2 0 0 1 3.5-1l.4.6h68l6.5-6.6 6.5-6.6v-17.3l.1-27 .1-9.8 3.2-3.4 3.3-3.4V79c0-1 .3-1.6 1.1-1.9h1.2c.8.4 1.2 1 1.2 2v.8l3.2 3.4 3.2 3.4v8l.2 27v19.2l6.5 6.5 6.5 6.5h68l.3-.4c.5-.8 1.8-1 2.7-.5 1.3.8 1.1 2.8-.4 3.5-.6.2-.9.2-1.5 0zm-182.4-5c-1.3-.9-.8-2.8.8-2.8.4 0 .7.1 1 .4l.4.5.3.3 26.7.2 33.2.2 6.8.1 5.4-5.8 5.4-5.8V110.9l-1.8-1.7-1.8-1.8v-5l-.6-.5a3.8 3.8 0 0 1-1.2-2.8c0-1 0-1.2.5-2a4 4 0 0 1 4-2.2h.7v-.6l-.3-5.6-.3-4.9.8-.8a1347.5 1347.5 0 0 0 7.3-7.8l.7-.6-.5-.8a5.4 5.4 0 0 1 2-8c.8-.4 1-.4 2.4-.4 1.3 0 1.6 0 2.3.4 1.3.6 2.4 2 2.8 3.2a5.4 5.4 0 0 1-7.6 6.5l-.6-.3-1 1c-8.2 8.7-7.6 8-7.5 8.6l.3 5.6.3 5 .6.5 1 1.4c.2.7.3 1 .2 1.8a4 4 0 0 1-4.3 3.9h-1v4l1.8 1.7 1.7 1.7v14.3L91 139l-4.8 5.2-5.7 6.1-.9.9-33.7-.3a547 547 0 0 0-34 0c0 .2-1 .6-1.2.6a2 2 0 0 1-.7-.3zm93.9-76.8a4.1 4.1 0 0 0 2.2-4c0-1.6-.9-3-2.5-3.7-2.7-1.3-6 .8-6 3.8 0 1.8 1 3.2 2.5 4 .8.3 1 .4 2 .3.7 0 1.2-.2 1.8-.4zM192 151l-.5-.3-33.7.2-33.7.3-.3-.4-5.7-6.1-5.4-5.8v-28.6l1.8-1.6 1.8-1.7v-4h-1.1c-2.6 0-4.4-2-4.2-4.5 0-1 .3-1.6 1.2-2.6l.6-.6.4-5.6.3-5.5-.7-.7-4.2-4.5-3.6-3.8.3-.3.4-.3 4.5 4.6 4.3 4.6-.3 5a259 259 0 0 0-.3 5.5v.5h1c1.3 0 2 .3 2.9 1 1 1 1.2 1.6 1.2 3.1 0 1.4-.2 2-1.2 3l-.5.5v5.1l-1.8 1.6-1.8 1.7V138.6l5.4 5.8 5.4 5.8h3.2a12712.8 12712.8 0 0 0 63.8-.7c.4-.7.8-1 1.4-1 .7 0 1 .3 1.4.8.3.7.3 1.2-.3 1.7-.7.7-1.3.7-2 .1zm-125.7-2.3c-.7-.4-1.1-.9-1.5-1.6-.6-1.5.3-3.5 1.8-3.9l.4-.1V142l-.2-2.9-.1-1.7 5.7-5.2 5.6-5.1h2.4c.9-.2 1-.2 1-.5 0-1.2.8-2.3 2-2.6l.7-.2v-5.6h-.4c-1.1-.3-2-1.6-2-2.8 0-1 .2-1.5.7-2a3 3 0 0 1 3.4-.7c1.1.5 1.7 1.4 1.7 2.7 0 1.2-.9 2.5-2 2.7l-.4.1V124l.5.4c.8.7 1.1 1.3 1.1 2.2 0 .6 0 1-.3 1.4-.9 1.5-3.1 1.7-4.3.5-.3-.4-.4-.4-2-.4h-1.5l-5.5 5-5.4 4.8.1 2c.1 3.2.2 3.3.7 3.4.3 0 .7.4 1 .7a3 3 0 0 1-.4 4.6c-.7.4-2 .5-2.8.2zm68.5 0c-1.1-.6-1.6-1.4-1.6-2.7 0-1.3.7-2.3 2-2.7.5-.2.5-.3.6-3.2V138l-5.3-4.9-5.3-4.8h-1.7c-1.7-.2-1.7-.2-2.1.2-.7.6-1.1.8-2 .8-.9 0-1.5-.3-2-1-.4-.5-.5-.7-.5-1.6 0-1.2.3-1.7 1.1-2.2l.5-.3V118.5l-.7-.4c-1-.5-1.6-1.2-1.6-2.4 0-.7 0-1 .2-1.5a3 3 0 0 1 4.4-1c.8.6 1.1 1.3 1.1 2.2 0 1.4-.6 2.3-1.8 2.8l-.6.2v5.5l.7.2c1.1.3 2 1.4 2 2.7v.4h3.4l5.7 5.2 5.6 5.1v1.9l-.2 2.8-.1 1 .5.2c.6.2 1.5 1 1.7 1.7.2.5.2 1.6 0 2-.2.7-1 1.5-1.6 1.7-.6.3-1.9.3-2.4 0zm-89-4.3a3 3 0 0 1-1.7-1.6l-.3-.7h-8.7l-2.7.2-.2.5-.8.9c-1.3.8-3.1.4-3.8-.9l-.3-.5H21c-6 .1-6.6.2-7 .4-1.1.8-2.8.3-3-1a2 2 0 0 1 .5-2c.4-.5.6-.5 1.4-.5.8 0 .9 0 1.3.5.4.3.5.6.6 1 0 .7 0 .7.6.7h12l.1-.7c.5-1.8 2.7-2.5 4.2-1.4.5.3 1 1.3 1 1.7 0 .2 1.3.3 7.5.1H44l.3-.7a2.9 2.9 0 0 1 4.7-.9c.6.6.8 1.2.8 2 0 1.1-.2 1.7-1 2.3-.7.8-1.8 1-2.8.6zm109.9 0c-1.2-.5-1.8-1.5-1.7-3 0-.8.1-1 .5-1.5.6-.8 1.3-1 2.4-1 1.2 0 2 .5 2.5 1.5.3.5.5.6 1 .7l5.5.1h5.1l.1-.5c0-.2.3-.6.6-1 1.1-1.2 3-1.2 4 0 .3.4.6.8.6 1.1l.1.6h8.4l4.2.1v-.5c0-1 1-1.9 2-1.9.8 0 1.6.7 1.9 1.5a2 2 0 0 1-3 2.2c-.5-.3-.6-.3-7-.4h-6.6l-.3.4c-.6 1.1-2 1.6-3.2 1.2-.6-.2-1.6-1.2-1.6-1.5 0-.2-.4-.3-3-.3h-5.7l-2.7-.2-.1.5c-.1.6-.9 1.5-1.6 1.8-.6.4-1.8.4-2.4.1zm-84.4-2c-2-.9-2-3.8 0-4.8 1.5-.7 3.5.1 3.8 1.7.1.5.1.5 2 .6l.9.1 1.2-1c3.5-3.3 3.9-3.7 3.7-3.9-.3-.4-.5-1.5-.3-2.2a2.8 2.8 0 0 1 2.8-2.2c.9 0 1.4.2 2 .7a3 3 0 0 1-.3 4.5c-.5.4-.6.5-1.6.5-.6 0-1.2 0-1.4-.2-.4 0-.7.2-3 2.4l-2.7 2.5-1.6-.2c-1.6-.1-1.8-.1-1.8.2 0 .3-.8 1.1-1.4 1.4-.7.3-1.5.2-2.3-.1zm58.4 0c-.5-.3-1-.9-1.1-1.4-.1-.1-.3-.2-1.2 0-2.4.2-2 .4-5-2.4l-2.6-2.5-.7.3a3 3 0 0 1-3.4-1.2c-.3-.5-.4-.7-.4-1.6 0-.9 0-1 .5-1.6.6-1 1.5-1.4 2.6-1.3 2 .2 3.2 2 2.6 3.8l-.3.8c0 .1 1 1.2 2.4 2.5 2.7 2.5 2.4 2.3 4.4 2 .8 0 .8 0 1-.6a2.7 2.7 0 0 1 4.8-.6c.9 1.3.4 3.2-1 3.9-.6.3-2 .3-2.6 0zm-79.8-.7v-.5h8.6l10.7-10.8L80 119.7v-18.4l-.2-18.4L84 79l4-3.9-.6-.5a3.7 3.7 0 0 1-.7-5.3c.8-.9 1.6-1.2 2.8-1.2h1v-4.3c-.1-3.4-.2-4.3-.4-4.8a4 4 0 0 1 .1-2.9c.4-.7 1.3-1.5 2-1.6.4 0 .4 0 .2-3.1l-.2-2.1 1.2-1a9 9 0 0 0 1.1-1l-.2-.5c-.3-.6-.3-1.7 0-2.3.9-1.5 2.9-2 4.2-.8 2 1.8.5 5-2.2 4.6l-.8-.1c-.1-.1-.5.1-1.2.7l-1 .9v1.7c.3 2.7.3 2.8 1 3 1.2.5 2.1 1.8 2.1 3.2 0 2.4-2.4 3.9-4.8 3-.2-.2-.2 0-.1 3.9v4l.6.4c1.1 1 1.4 3.2.5 4.6-.5.9-1.8 1.6-2.6 1.6-.5 0-.8.3-4.8 4.1l-4.3 4.2v7.3l.2 18.4v11l-11 11-10.9 11-4.5.1H50zm83.8-10.5l-11-11.1v-8.8l.2-18.3v-9.6l-4.2-4c-4-3.9-4.2-4-5-4.2-2-.4-3-1.6-3-3.6 0-1.3.2-1.8 1-2.6l.5-.5.1-4 .1-4-.5.2c-1.9.8-4.3-.6-4.5-2.7-.2-1.5.7-3 2-3.4.9-.3.8-.3 1-3.2l.1-1.7-1-.8-1-.9-.7.2c-1.8.5-3.4-.7-3.4-2.5 0-1.3.8-2.3 2-2.6 2.1-.6 4 1.6 3.1 3.6l-.2.6 1.2 1 1.1 1-.2 2.1c-.2 3.1-.2 3 .3 3 .6.2 1.8 1.4 2 2 .3.7.3 2 0 2.6a17 17 0 0 0-.4 4.7v4.3h1c1 0 1.7.2 2.4.9a4 4 0 0 1 1 4.2c-.3.6-1.1 1.4-1.8 1.8-.2.2.5.8 3.9 4l4 3.9v18.4l-.1 18.5 10.6 10.7 10.7 10.7h4.4l4.4.1v1h-9.1zM7.8 136c-1-.3-1.4-.9-1.4-2 0-.6 0-.8.6-1.3.5-.5.6-.6 1.3-.6.6 0 .8.1 1.3.5l.6.5 24.9.2 25 .1 6.7-6.8 8.1-8.3 1.4-1.4V92l.2-25.2-.5-.1c-1.1-.3-1.7-1.9-1-3a2 2 0 0 1 3.6.7c.1.7-.1 1.2-.7 1.8l-.4.5-.1 25.5-.1 25.4L69 126l-8.4 8.5H38.3a2430.3 2430.3 0 0 1-28 0l-.3.7c-.3.7-1.4 1.1-2.1 1zm186.7-.1c-.6-.4-1-.9-1-1.4v-.3h-18.3l-25.1.3h-6.8l-8.4-8.5-8.4-8.5V92l-.2-25.4-.5-.5c-.7-.8-.8-1.4-.3-2.6.2-.4 1-.8 1.8-.8.6 0 .8 0 1.3.6.5.5.5.6.5 1.2 0 .4 0 1-.2 1.1-.3.5-1 1-1.3 1-.3 0-.3.8-.2 16.4l.1 25.3v8.8l8.1 8.2 8.2 8.2 24.9-.2 25-.1.3-.4c.8-.7 1.6-.8 2.4-.4.7.3 1 .9 1 1.8 0 .5 0 .8-.3 1.1-.6.9-1.7 1-2.6.6zm-93.8-3.2a2 2 0 0 1-.6-.8c0-.7.2-1.5.7-1.9.3-.2.4-.4.5-1l.1-12.8.1-12-.5-.3c-.2-.2-.6-.6-.7-.9-.3-.5-.3-.6 0-1.2.5-1.8 3-1.6 3.4.3.1.6-.3 1.5-.8 1.7-.3.2-.3.2-.4 5.1l-.1 12.8-.1 8 .5.2c1 .6 1.2 2 .3 2.8-.3.4-.5.5-1.1.5-.6 0-.8 0-1.3-.5zM6 131.4c-.5-.2-1-1-1.2-1.6-.1-.6.3-1.5.9-1.9a2 2 0 0 1 2.8.7l.3.5H11c2.9.2 40.6.2 44.2 0H58l7.6-7.7 7.7-7.6v-2.6a2783.8 2783.8 0 0 1 .6-38v-1.5h-.5c-1.7 0-2.5-2.2-1.2-3.4 1-.9 2.3-.7 3 .4a165.6 165.6 0 0 0-.6 24l-.4 21.4-2.2 2.4c-2.9 3-12.5 12.6-13.3 13.1l-.5.5-5.2.1c-2.8 0-14 .1-24.7 0H8.6l-.1.4c-.4.7-1.6 1.1-2.5.8zm189.6-.5l-.6-.6h-24.5c-19.4 0-24.6-.1-25-.2l-8.2-8-7.7-7.7-.4-21.6a164.4 164.4 0 0 0-.7-23.9c.6-1.4 2.8-1.4 3.5 0a2 2 0 0 1-.3 2.2c-.4.5-1.4.8-1.7.6v4.5l.3 21 .2 16.6 4.9 5 7.6 7.6 2.9 2.7h1c.6.1 11.6.2 24.6.2H195l.1-.4c0-.2.4-.6.6-.8.4-.4.7-.5 1.3-.5 1.9 0 2.7 2.1 1.4 3.4-.5.5-.7.5-1.4.5s-.8 0-1.4-.6zM29 127.7c-.3 0-.8-.5-1.1-.8-1.3-1.3-1-3.3.4-4.4.6-.4.8-.4 1.7-.4.8 0 1 0 1.6.4a3 3 0 0 1 1.3 2v.5h4.7l8.5-.1c3.9-.1 3.9-.1 4-.5.1-.5.8-1.2 1.4-1.4.8-.2 1.6 0 2.2.7.9 1 .6 2.7-.6 3.3-1 .4-2.3.1-2.7-.7l-.3-.5-8.7.1c-7 0-8.7.1-8.7.3-.2.4-1.3 1.4-1.9 1.6-.8.2-1 .2-1.8 0zm143.5 0l-1.1-1-.4-.7h-17.1l-.5.4c-.6.6-1 .8-1.8.8-1.2 0-2-.8-2-2 0-1.3.9-2.2 2.1-2.2 1 0 1.6.5 2 1.3l.2.7h16.9l.2-.7c.2-.7.9-1.6 1.5-2l1.3-.2c1 0 1.6.3 2.2 1 2.1 2.4-.6 6-3.5 4.5zm24.7-4.4c-.3-.2-.7-.5-.8-.8-.3-.5-.3-.5-1.7-.5a3416.8 3416.8 0 0 0-54.3-1l-2.8-3.2-2.7-3.1V111l-.5-.1c-.7-.1-1.4-.7-1.8-1.4-.3-.6-.3-1.9 0-2.4a3 3 0 0 1 1.7-1.4l.6-.2v-5.1l2-2.6 1.8-2.5.3-9 .3-10.2.1-1-.5-.3c-.7-.4-1.1-.8-1.3-1.5-.2-.8 0-1.6.7-2.1.4-.4.6-.5 1.3-.5 1.3 0 2.2.8 2.2 2 0 .6-.4 1.5-.8 1.7-.7.4-.6-.2-1 10.9l-.3 10.4-2 2.6-1.9 2.6.1 2.4.1 2.4.5.3c1 .7 1.5 2 1 3.2-.2.6-1 1.6-1.4 1.6l-.1 1.7v1.7l2.3 2.7a670 670 0 0 0 2.5 2.9 8068.5 8068.5 0 0 1 51.2 1h4l.3-.4c.6-1.2 2.5-1.4 3.4-.2 1.2 1.6-.8 3.9-2.5 3zM4.6 123a2 2 0 0 1-.7-1c-.2-.5-.2-.7 0-1.2.4-1.3 2-1.8 3-1l.7.8v.3l25.1-.4 27.6-.5H63l2.4-2.9 2.5-2.8v-3.4l-.4-.2a3 3 0 0 1-1.3-2 3 3 0 0 1 1.5-2.8c.2-.1.2-.6.3-2.5l.1-2.4-2-2.6-2-2.7-.2-10.4-.3-10.5-.4-.2c-1-.5-1.4-2-.7-3 1-1.4 3-1.2 3.7.4a2 2 0 0 1-1 2.7l-.7.3.1 1.5L65 94v1.2l2 2.6 1.9 2.7v2.6c0 2.5 0 2.6.3 2.6.5 0 1.4.5 1.8 1 .4.6.5 2 .2 2.7-.2.6-1.2 1.4-1.8 1.6h-.5v3.7l-2.4 2.7-2.8 3.2-.5.4-25.5.4-27.7.5c-2.3 0-2.3 0-2.4.3 0 .2-.4.5-.6.7-.6.6-1.7.6-2.4.1zm42.6-4a3 3 0 0 1-1-.8l-.4-.6-15-.1H4.8l-.3.4c-.4 1-1.7 1.3-2.7.8-.6-.3-1-1-1-1.8 0-.6.1-.8.6-1.3s.7-.6 1.4-.6.8 0 1.4.7l.6.6 18.8.2H45.6l.1-.4a3 3 0 0 1 1.4-1.9c.7-.3 2-.3 2.6.1l.6.3 1.5-1.3c2.5-2.4 4.6-4.6 4.5-4.8-.2-.3 0-1.6.2-2 .2-.6 1.2-1.4 1.5-1.4 0 0 .2-.2.2-.6 0-.4.2-6.9.2-14.4l.1-13.7-.5-.3c-.3-.1-.6-.4-.8-.7-.3-.4-.4-.7-.3-1.3 0-.7.1-.9.6-1.3.4-.5.6-.6 1.3-.6 1.4-.1 2.3.7 2.3 2.1 0 .7-.4 1.3-1 1.8l-.5.3-.1 7.9-.2 14.3v6.3l.7.3c1.6.8 2 2.8.9 4.2-.8.9-2.3 1.2-3.4.6l-.5-.3-3 2.9-3 2.9v.7c.2 1.3-.4 2.4-1.5 2.9-.8.3-1.5.3-2.3 0zm107 0c-.2 0-.7-.4-1-.8-.3-.5-.4-.6-.4-1.6v-1l-3-3-3-2.9-.7.4-1 .3c-1.8 0-3.2-1.7-2.8-3.4.3-.8 1.2-1.7 1.8-1.9h.5l-.1-7.1-.2-14.4v-7.2l-.5-.3c-1-.5-1.4-2-.8-2.9 1-1.4 2.7-1.4 3.6 0 .3.4.4.6.3 1.3 0 .8-.4 1.3-1.2 1.7l-.4.3v12.9c.2 14.8.2 15.6.6 15.8.5.1 1.2.8 1.4 1.3.3.4.3 1.5.2 2.2 0 0 1.2 1.4 3 3.1l3 3 .6-.4c.7-.5 1.6-.5 2.4-.2.7.3 1.4 1.2 1.5 1.9l.1.6 12.7-.1a396 396 0 0 0 28.5-.5c0-.3.9-.9 1.5-1 .7-.1 1.2 0 1.8.6.4.4.5.6.5 1.3 0 .9-.3 1.4-1 1.8a2 2 0 0 1-2.8-1l-.2-.4h-3.5c-1.9 0-11.1 0-20.5.2h-17l-.6.7c-.3.3-.7.7-1 .8a3 3 0 0 1-2.3 0zm23.1-3.6c-.6-.2-1.3-.8-1.4-1.3 0-.1-2.2-.2-9.4-.2l-9.2-.1-4.4-4.5-4.3-4.5v-4.2l-.2-20.2c0-13-.1-16-.3-16.1l-.8-.7c-.5-.5-.5-.5-.5-1.4.1-.7.2-.9.6-1.3.5-.4.7-.5 1.3-.5 1.3 0 2 .7 2 2 0 .8-.3 1.3-1 1.7l-.4.2v12l.2 20v8l1.8 1.8 4.1 4.3 2.3 2.4h9l8.9.2v-.4c0-.5.6-1.6 1.1-2a3 3 0 0 1 3.2.2c.5.3 1 1.3 1 1.8 0 .3.2.3 2.2.4l7.9.1h5.8l.1-.4c.2-1.1 1.5-1.9 2.5-1.5.8.2 1.4 1 1.4 1.8 0 .7-.4 1.5-1 1.8-.8.4-2.1.2-2.5-.4 0-.2-1.6-.2-8.4-.3l-8.2-.1-.2.3c-.4 1-2 1.5-3.2 1.1zm-153-.2l-.9-.8-.4-.4h-8.2c-8 0-8.1.1-8.5.4-.7.7-1.4.8-2.3.4a2 2 0 0 1-.7-2.8c.9-1.5 3-1.1 3.6.6l.1.5h5.2l8-.1h2.6l.1-.6c.1-.8.7-1.5 1.4-2 .8-.3 1.5-.4 2.3 0 .9.4 1.3 1 1.5 1.8l.2.7h8.8l8.8-.1 3.1-3.2 4.2-4.3 1-1.2.2-19.9.1-19.9-.5-.3a2.2 2.2 0 0 1-1-2c.4-1.8 2.8-2.3 3.7-.7.6 1 .2 2.4-.9 2.8-.3.2-.3.2-.3 3l-.1 20.1-.1 17.4L53 107a1812 1812 0 0 1-4.4 4.5l-2.2 2.3-9.2.1H28l-.3.6c-.7 1-2.5 1.4-3.5.8zm-18.6-6.8c-.8-.4-1.2-1-1.2-1.8 0-1 .8-2 1.8-2h.5l-.5-.2c-.7-.4-.8-.7-.8-1.4 0-.9.5-1.5 1.4-1.5.7 0 1.4.5 1.4.9a2725.6 2725.6 0 0 0 37 0 1122.4 1122.4 0 0 0 .6-28.5v-2.2l-.4-.3c-1.8-1-1.2-3.7.9-3.7 1.8 0 2.7 2.1 1.4 3.3l-.7.6s-.3 5.9-.5 15.8l-.4 15.9-18.9.2-18.9.1-.4.4c-.3.3-.6.5-.8.5-.4 0-.4 0 .1.3l.9.8.3.5h4.4a4863.6 4863.6 0 0 1 36-.5 2435.4 2435.4 0 0 0 .6-38c-.3 0-1-.9-1.2-1.5-.1-.6.3-1.5.8-1.9a2 2 0 0 1 3.1 1.6 2 2 0 0 1-1 1.8l-.4.3a16132.5 16132.5 0 0 0-1 38.7l-38 .4c-3.3 0-3.3 0-3.5.3-.2.7-1.2 1.3-1.9 1.3-.1 0-.5 0-.7-.2zm190.6 0c-.3-.2-.6-.5-.7-.8l-.3-.4a27587.3 27587.3 0 0 0-41.3-.5l-.5-19.5c-.3-15.2-.5-19.3-.6-19.3l-.7-.6c-.5-.5-.6-.5-.6-1.4 0-.9 0-1 .6-1.4.5-.5.6-.5 1.3-.5.8 0 1 0 1.4.5 1 .9.8 2.3-.3 3l-.6.4.1 3a3836 3836 0 0 1 .8 34.8l37.8.4h2.7l.2-.5.7-.7c.6-.2.7-.4.2-.4l-.7-.4-.5-.5h-18.9l-19-.2v-1.6a1682 1682 0 0 0-.5-28.4v-1.7l-.5-.3c-1.3-.8-1.3-2.7 0-3.4 1-.6 2.1-.2 2.7.8a2 2 0 0 1-.8 2.6l-.5.3v2a4027.4 4027.4 0 0 1 .8 28.7l18.3.1 18.4.1.5-.5c.4-.5.7-.6 1-.6.7 0 1.4.6 1.6 1.3.1.6-.3 1.4-1 1.6l-.5.2h.6c1 .3 1.8 1.2 1.8 2.2 0 1.4-1.8 2.3-3 1.6zm3.2-6.7c-.3 0-.5-.4-.7-.6l-.2-.4-2.7-.1a614.5 614.5 0 0 0-13.7-.4c-.4 0-3-2.6-11.3-10.6-9.2-9-10.8-10.6-10.8-11l.2-7.7.2-7.3-.6-.3a4 4 0 0 1-2.3-3.7c0-1.6.8-2.9 2.2-3.6.6-.3.7-.4.7-.8v-1.3c.1-.7.1-.7-.3-1-1.4-.7-1.4-2.9 0-3.5 2-1 3.7 1.4 2.4 3-.2.3-.6.5-.8.6-.3.1-.3.2-.3 1.3v1.2h.7c1.4.3 2.7 1.3 3.2 2.6.4.9.4 2.4 0 3.3-.6 1.2-2.2 2.3-3.4 2.3-.2 0-.4 0-.4.2l-.3 7.4-.3 7.3.6.5 19 18.5 1.8 1.7 8.2.2 8.2.1.3-.3c.3-.3.6-.4 1-.4 2 0 2.1 2.7.3 3-.3 0-.7 0-1-.2zm-196.9-.2c-1.4-1.4.5-3.5 2-2.3l.4.4 8.3-.2 8.2-.2 8-7.8L40 81l2.7-2.6-.3-6.9c0-3.8-.2-7-.2-7.3 0-.5 0-.5-.4-.5-.7 0-1.8-.5-2.4-1-2.6-2.3-1.3-6.7 2-7.1l.8-.1v-1.2c0-1 0-1.2-.3-1.3-.6-.3-1-.8-1.2-1.4-.2-.8 0-1.4.7-2 .5-.5.6-.5 1.4-.4.6 0 .8.1 1.2.5 1 .9.7 2.5-.4 3.2-.5.2-.5.3-.4.7v1.2c0 .8 0 .8.6 1 2 1 2.9 3.4 2 5.4-.3.7-1.2 1.7-1.9 2l-.7.4V65a347.8 347.8 0 0 0 .5 13.3v.6l-10 9.7-11 10.7-1 .9-7.3.1c-8.4.2-9.5.3-9.5.5l-.3.6c-.6.6-1.6.6-2.1 0zm32.5-1.1l-.5-.5a2 2 0 0 1 0-1.7c.4-.5 1.2-.8 1.7-.6.4.2.5 0 2-1.4l1.5-1.6-.3-2.6-.2-2.6-.5-.5c-1-.9-1.2-2.2-.6-3.3 1.3-2.4 5-1.5 5 1.2 0 1.4-1 2.5-2.2 2.7-.8 0-.7-.1-.4 3.3l.2 2.3-1.7 1.7c-1.4 1.4-1.7 1.8-1.7 2.2 0 1.3-1.1 2-2.3 1.4zm131.7-.2c-.3-.3-.4-.6-.4-1 0-.5-.2-.7-1.7-2.4L163 95l.2-2.1c.3-3.3.3-3.2-.3-3.3-2.1-.3-3-3-1.6-4.5.6-.6 1.1-.8 2-.8 2.5 0 3.6 3.1 1.7 4.7l-.5.4-.2 2.7-.3 2.7 1.5 1.5 1.5 1.5.7-.1c.6 0 .8 0 1.2.3.4.4.5.5.5 1.1 0 .7-.1.8-.5 1.1-.6.6-1.5.6-2 0zm-97-1.3c-.6-.2-.8-.4-1.1-1-.3-.6-.3-1.3-.1-1.8.2-.5.8-1 1.1-1.1.3-.1.3-.3.4-3l.1-5.5V84l-.8-.7c-.7-.5-.9-.6-1.1-.5-.7.4-2 0-2.4-.7a2 2 0 0 1 1.7-3.1c1.2 0 2.2 1.3 1.9 2.5-.2.4-.1.5.8 1.2l1 .8L71 89v5.7l.5.3c.7.4 1 1 1 1.8a2 2 0 0 1-2.7 2zm62.5 0c-1.5-.6-1.6-3.1 0-3.8l.4-.2v-5.6l-.1-5.7 1-.8c.7-.6.9-.8.8-1-.2-.6-.1-1.5.2-1.9.3-.5 1-.8 1.7-.8 1.1 0 1.9.8 1.9 2 0 .6 0 .8-.6 1.3l-.6.6h-1c-1-.1-1-.1-1.7.5l-.7.6v7.5l.2 3.3.4.2c1.1.6 1.5 2 .8 3-.6 1-1.7 1.3-2.7.8zm64.3-.9c-.4-.2-.9-.6-1-1l-5.8-.3-5.8-.2-.6-.6-9.8-9.4-9.1-9v-3.8c0-3.3 0-4-.2-4-.4 0-1.2-.7-1.3-1.3-.5-1.6 1.3-3 2.8-2.3 1.3.7 1.4 2.7.2 3.5l-.5.2V77.1l6.9 6.7 9.4 9.2 2.5 2.5 4.8.2c6.8.3 6.3.3 6.6-.3a2 2 0 0 1 3.1-.5c.7.7.8 1.4.5 2.1-.6 1.1-1.7 1.5-2.7 1zM5 97.7c-1-.8-1-2.6.3-3.2.2-.2.7-.2 1-.2.6 0 .8 0 1.2.4.3.2.6.6.6.8l.1.4h1.5l5.5-.3 4-.2 1-.9c.6-.5 4.9-4.6 9.5-9.2l8.5-8.2V70l-.6-.6c-.6-.5-.7-.6-.7-1.5 0-.8 0-1 .6-1.4.5-.4.7-.5 1.3-.5 1.3 0 2.2 1 2 2.2-.1.7-.4 1.2-1 1.5l-.6.2v7.8L29.6 87l-9.7 9.4-5.8.2-5.7.3-.6.6c-.6.6-.7.6-1.4.6s-1 0-1.3-.4zm195.8-3c-.2 0-.5-.3-.6-.4-.2-.2-.8-.3-5.2-.4h-6.8l-1.7-.1-9.5-9-9.5-9.2v-9.1l-.5-.6c-.5-.5-.6-.7-.6-1.4 0-.6.1-.8.6-1.3s.7-.6 1.3-.6c1.3 0 2 .8 2 2 0 1-.7 1.9-1.5 1.9-.2 0-.3.5-.3 4.3v4.4l9.2 8.7 9.1 8.8h1.8l6.5.3h4.6v-.3c0-.5.6-1.3 1.1-1.5 1.7-.7 3.4 1 2.7 2.6-.6 1-1.7 1.5-2.7 1zM1 94.6c-.5-.3-.9-1-.9-1.6 0-.5.5-1.3 1-1.6.2-.2.7-.3 1.1-.3.6 0 .8 0 1.2.4.4.3.6.7.6 1l.1.5h8.7l4.1-.2 9.3-8.9 9.3-8.9-.1-.9-.1-4.2v-3.2l-.5-.2c-.9-.3-1.3-1-1.3-2 0-.7 0-.8.5-1.3 1.3-1.3 3.4-.4 3.4 1.5 0 .6-.1.8-.6 1.3l-.5.5v9.1L27.5 84 18 93l-.9.8h-6.6l-6.7.2-.5.4c-.4.4-.6.4-1.3.4-.5 0-.9 0-1.2-.3zm195.5-3.2a2 2 0 0 1-.7-.4l-.4-.4-3-.1h-3l-9-8.7-9-8.6.3-2 .2-1.9-.6-.5c-.3-.4-.5-.7-.5-1-.1-1.6.6-2.4 2-2.4.6 0 .8 0 1.3.6.5.5.6.6.6 1.3a2 2 0 0 1-1.3 2c-.5.1-.5.1-.7 1.6a12 12 0 0 0-.1 1.7c0 .2 4 4 8.6 8.6l8.6 8.3h3.7l1.6.1v-.3c0-.5.5-1.3 1-1.5a2 2 0 0 1 2.8.9c.3.7.3 1.4-.2 2-.5.7-1.3.9-2.2.7zM5.8 91.1c-1.2-.7-1.3-2.2-.4-3.2.5-.4.6-.5 1.4-.5.7 0 .8 0 1.4.6.4.4.6.7.6 1v.4H14l8.7-8.4 8.7-8.3-.1-1c-.3-2.4-.3-2.5-.8-2.7-.8-.2-1.2-.8-1.2-1.7 0-.9.2-1.5 1-1.9.6-.3 1-.3 1.6 0 1.4.5 1.7 2.1.6 3.3l-.5.4.2 2 .2 2-8.8 8.5c-7.6 7.3-9 8.6-9.5 8.7H8.6l-.5.5c-.4.4-.7.5-1.2.5L5.8 91zm190.5-9a3 3 0 0 1-.8-.7l-.3-.4-2.3.3-2.3.2-1.3-1.4-1.3-1.3-.7.1c-1.5.4-2.6.1-3.6-1-.8-.9-1-2-.6-3.2l.2-.7-.8-.7-.8-.6H180c-1.9 0-2 .1-2.3.7-.3.6-1 1.1-1.6 1.1a2 2 0 0 1-2-2 2 2 0 0 1 2.1-2c.6.1.8.2 1.2.7l.6.6h2l2-.1 1 .7 1 .8.6-.3c.9-.4 2.2-.4 3 0 1.7.9 2.3 3.2 1.2 4.8l-.3.4 1.2 1.2 1.2 1.2 2-.3 2.1-.2.3-.6a2 2 0 0 1 3.1-.5c.7.6.8 1.4.5 2-.6 1.1-1.8 1.6-2.7 1.1zM5.6 81.8c-.6-.4-1-1-1-1.8 0-1.1.9-1.9 2.1-1.9.6 0 .8.1 1.2.5l.6.6c0 .5.3.6 2.2.9l2 .2 1.2-1.2 1.2-1.2-.4-.7c-.7-1.3-.4-3.1.8-4.1 1-.8 2.6-1 3.8-.3l.4.3 1-.8 1.1-.8h2l2 .1.3-.4c.3-.5 1-.8 1.7-.8.6 0 .8 0 1.3.5s.5.6.5 1.4c0 .9 0 1-.5 1.5-.5.4-.7.5-1.4.5-.9 0-1.5-.4-1.8-1.2l-.2-.4-1.7-.1-1.8-.1-.8.6c-.7.5-.9.7-.8 1 .3 1.1.4 1.7.2 2.4a3.3 3.3 0 0 1-3.2 2.4c-.5 0-1 0-1.3-.2-.3-.2-.4 0-1.7 1.3L13 81.5l-2.2-.3-2.3-.3-.6.6c-.5.5-.6.6-1.3.6l-1-.2zm2.7-5c-.6-.3-1-1-1-1.7s.4-1.4 1-1.8c1-.4 1.8-.3 2.5.5l.5.5 3.7-3.7 3.8-3.6H21c2.4 0 2.5 0 2.5-.6l.5-1c.6-.5.7-.5 1.5-.5.7.1.9.2 1.3.7.4.4.5.6.5 1.2 0 1-.5 1.8-1.5 2-.6.2-1.5-.1-1.8-.5-.3-.2-.5-.3-2.5-.3h-2.3l-4 3.9-4.2 4.2a2 2 0 0 1-2.7.7zm185.2 0l-.7-.7a199 199 0 0 1-4.8-4.8l-3.5-3.3-2.3.1c-2 0-2.3.1-2.5.4-.5.4-1.5.5-2.2.2-1.4-.8-1.3-3 .2-3.6a2 2 0 0 1 2.7 1.4l.1.6h4.6l3.7 3.6 3.8 3.7.5-.6c.6-.6.8-.7 1.8-.6.8 0 1.6 1 1.6 2 0 1.4-1.7 2.4-3 1.6zm-128-7c-.4-.2-1-1-1.2-1.5l.1-1V67l-1.6-2c-1.2-1.3-1.7-2-1.7-2.3L60.4 50c0-.6 0-.6 2-2.3l2-1.6v-.9c-.2-1 0-1.4.8-2 1-.7 2.6 0 3 1.2.3 1.5-1.1 3-2.6 2.4-.3-.1-.5 0-2.2 1.4-1.7 1.5-1.9 1.7-2 2.1l.4 6.4.3 5.7 1.6 1.9 1.5 1.8h.7c1.3-.3 2.4.6 2.4 1.9a2 2 0 0 1-2.8 1.8zm70.6-.4c-.5-.4-.5-.5-.5-1.4 0-.8 0-1 .6-1.4.5-.5.6-.5 1.4-.5h1l1.6-1.8c1-1.3 1.6-2 1.6-2.2a379.6 379.6 0 0 1 .5-11.2v-1l-1.8-1.5-1.8-1.5h-1c-.9 0-1 0-1.4-.5-1.5-1.3-.3-3.8 1.6-3.4 1.2.3 1.7 1 1.6 2.4v.7l1.9 1.7 2 1.6v.9l-.4 6.8-.3 5.8-1.7 2c-1.7 2-1.8 2-1.6 2.5.4 1.4-.5 2.6-2 2.6-.6 0-.8-.1-1.3-.6zm-122-2.7c-.7-.3-1.2-1-1.3-1.7-.1-1.5 1.5-2.7 2.8-2 .5.3.5.3 1.8-.6l1.3-.8 1.6.3c1.7.3 1.7.3 2.2 0 1-.6 2.3 0 2.3 1.3 0 .9-.6 1.4-1.5 1.4-.7 0-1.2-.3-1.5-1 0-.4-.2-.4-1.5-.7l-1.4-.2-1 .7-1.2.7v.8c0 .7 0 .8-.5 1.3-.5.4-.7.5-1.2.6l-1-.1zm173.8-.2a2 2 0 0 1-.8-1.8c0-.5 0-.6-1-1.2-1.1-.7-1.2-.7-2-.6-1.5.2-2.1.4-2.1.7l-.4.6c-1 1-2.6.5-2.6-1 0-1.3 1.4-2 2.5-1l2-.2 1.6-.3 1.3.8 1.2.8.7-.2c1-.4 2 0 2.6 1 .6 1.2-.5 2.7-1.9 2.7-.3 0-.8 0-1-.3zm-105.8-.4c-.5-.2-.8-.9-.8-1.6v-.7l-4.4-4.2a85.3 85.3 0 0 1-4.3-4.4l1.3-17c0-.4 2.8-3.5 10.6-12l.6-.6-.3-.5c-.4-.5-.4-1.8-.2-2.4.1-.3.4-.6.7-.9l.5-.5-.5-6.3-.5-6.5c-.8-.2-1.4-1.3-1.4-2.4 0-.8.2-1.3.9-2 1.5-1.4 4-.5 4.4 1.7.2 1.5-1 3-2.4 3H86l.1 1.5.4 6.1.4 4.6.7.1c1.4.2 2.4 1.6 2.2 3-.2 1.5-1.4 2.5-3 2.3h-.9L80.7 32a9041 9041 0 0 0-5.5 6c-.3.4-.4.8-1 8.7l-.6 8.2 4.3 4.1 4.2 4.2h.7c.5 0 .7 0 1 .5.7.6.7 1.3.1 2-.4.4-1.2.6-1.8.4zm38-.2c-1.1-1-.5-2.6.9-2.6.7 0 .1.5 6.1-5.3l3.1-3-.6-8.3-.6-8.3-5.5-6-5.5-6h-.9c-1 .1-1.5 0-2.1-.5a2.7 2.7 0 0 1 1.4-4.7l.7-.1.3-5 .4-6.1.1-1-.8-.2c-1.4-.3-2.4-2-2-3.3.5-1.2 1.5-2 2.7-2 1.6 0 2.6 1 2.6 2.7 0 1-.3 1.5-1 2.1l-.5.4-.4 6.3-.5 6.3.5.6c.7.7.9 1 .9 2 0 .5-.1 1-.3 1.3l-.4.5 5.6 6.1 5.6 6.4.7 8.8.6 8.4-2.6 2.6-4.4 4.2-1.7 1.7v.7c0 .7 0 .8-.5 1.2-.6.6-1.4.6-2 0zm12.4.2c-.3 0-.7-.4-1-.7-.6-.6-.6-1.5 0-2.3.4-.7.8-.9 1.8-.8.8 0 .9 0 1.5-.5l.7-.5-1-9s-.4 0-.7-.2a2 2 0 0 1-1-2.8c.7-1.5 3.1-1.2 3.6.4.2.7 0 1.5-.5 2l-.4.4.5 4.8.6 4.8-1 .7-.8.7.2.7a2 2 0 0 1-2.5 2.3zm-62.8-.3c-.8-.5-1-1.4-.8-2.4 0-.3 0-.4-.8-1-.9-.7-.9-.7-.8-1.3l.6-4.9c.4-4 .4-4.2.2-4.4-.4-.2-.7-1-.7-1.6 0-1.2.7-2 2-2 .6 0 .8.2 1.3.7.5.5.5.6.5 1.3 0 .7 0 .8-.5 1.4-.3.3-.7.5-1 .5l-.3.2a67.4 67.4 0 0 0-1 8.3c-.1.5-.1.6.6 1.2.7.5.8.5 1.3.4.5-.1.7-.1 1.3.2.9.4 1.2 1 1.1 2-.1 1-.7 1.6-1.8 1.7-.6 0-.9 0-1.2-.3zm17-.6c-.5-.2-.8-.8-.7-1.5v-.6l-4.4-4.3-4.3-4.3-.1-2.1L77 45l-.2-5.3 3.1-3.1 3-3.2-.1-.4c-.8-1.5.2-3.1 1.9-3.1 1.2 0 2 .9 2 2.2 0 .6 0 .8-.5 1.3s-1.3.8-2 .7c-.4 0-.6.1-3.4 3l-3 3 .2 7 .2 6.9 4.3 4.2 4.3 4.2h.7c.5 0 .7 0 1 .4.4.5.5 1.3.3 1.8-.4.6-1.3.9-2 .6zm28.6-.3c-1-1-.3-2.5 1.1-2.5.6 0 .6 0 5-4.2l4.2-4.2.2-6.9.2-7-3-3-3-3h-.6c-1.3.2-2.3-.7-2.3-2.1 0-.7 0-.9.5-1.3a2 2 0 0 1 3.1 0c.6.5.8 1.8.4 2.4l-.3.4 3.1 3.1 3.1 3.1-.2 7.4-.2 7.3-4.4 4.4-4.4 4.3v.7c0 .6 0 .8-.3 1.1-.6.6-1.6.6-2.2 0zm-85.7-2c-.8-.3-1.4-1-1.4-2v-.6h-4.6l-4.7-.2-.5.5c-.6.6-1.5.6-2 0-1-1-.4-2.5 1-2.5.5 0 .7 0 1 .5l.6.5 5 .1a19.6 19.6 0 0 0 6.2-.2c.6 0 .8 0 1.3.5.5.6.6.7.6 1.3 0 .8-.3 1.4-.8 1.8-.4.2-1.3.4-1.7.3zm143-.2c-.6-.4-.9-.9-.9-1.7 0-1 .5-1.6 1.4-1.9.5-.2.7-.1 1.4 0 .7.3 1.1.3 5.5.2l4.8-.1.4-.5c1-1.1 2.7-.6 2.7.9s-1.6 2-2.6 1l-.3-.5-3.5.1-4.7.2h-1.2v.7c0 1.5-1.7 2.4-3 1.6zm-86.7-3c-1-.3-1.5-1.2-1.4-2.4v-1L83 55l-1.7-1.4V51l-.2-6.6-.1-4.2 1.4-1.2c1.5-1.2 1.5-1.2 1.4-1.7 0-1.1.8-2 1.9-1.7.7.1 1 .7 1 1.5 0 1-.8 1.7-1.6 1.4-.3 0-.6.2-1.7 1l-1.4 1.1.1 5.3.2 6.2v1l1.6 1.3 1.5 1.3h1c1-.2 1.7.1 2.1 1 .9 1.6-.7 3.6-2.5 3zm30.3 0c-.7-.4-1-1-1-2 0-.7 0-.9.4-1.3a2 2 0 0 1 2-.8l.7.2 1.7-1.4c1.5-1.3 1.5-1.3 1.6-2l.2-6.2.1-5.4-1.3-1.1c-1.2-1-1.3-1-2-1.1-1 0-1.5-.6-1.5-1.5 0-1.4 1.7-2 2.6-1 .3.4.4.6.4 1.1v.7l1.4 1.2 1.4 1.2v4.3l-.2 6.7-.1 2.3-1.8 1.5c-1.5 1.3-1.7 1.6-1.6 1.8l.1 1c0 .5 0 .7-.5 1.2-.5.6-.7.7-1.3.7-.5 0-1 0-1.3-.2zm53.7-1.2a2 2 0 0 1-1.1-2.4c.5-1.6 2.7-2 3.5-.5l.3.5h4.8l5.3-.2c.4 0 .4-.1.5-.7.2-1.5 2.2-2.1 3.3-1 .5.5.5.7.5 1.4s0 1-.3 1.3c-.7.8-2 1-2.8.3-.4-.3-.6-.3-5.8-.2h-5.5l-.1.5c-.4 1-1.7 1.4-2.6 1zm-138-.4l-.6-.7c-.1-.3-.2-.3-3.6-.4-6-.2-7.4-.1-7.9.2-.5.3-1.5.4-2.1 0-.6-.2-1-.9-1-1.6 0-1.2.8-2 2-2 .7 0 .8.1 1.4.6.4.5.5.7.5 1v.6l3 .1c5 .2 7.7.1 7.7-.1l.5-.7a2 2 0 0 1 3.2.9c.2.5.2.7 0 1.2-.4 1.3-2 1.8-3 1zm19.2-.1c-.2 0-.5-.3-.7-.6-.7-.6-.8-1.3-.4-2.2l.3-.7-1.1-2.2c-1.9-3.6-2-3.7-2.6-3.8-2-.2-2.6-2.8-.8-3.7 1.8-.9 3.6 1 2.6 2.8l-.3.5.6 1 1.5 3c1 1.9 1 2 1.5 2a2 2 0 0 1 2 2 2 2 0 0 1-2.6 1.9zm100-.1l-.7-.7c-.3-.4-.3-.7-.3-1.3 0-.6.2-.8.6-1.2.4-.4.7-.5 1.2-.5h.6l.8-1.6 1.6-3 .8-1.4-.3-.6c-1-1.6.8-3.6 2.5-2.8l.8.7c1 1.2 0 3-1.5 3-.5 0-.6.1-1.4 1.6a97 97 0 0 0-1.6 3l-.7 1.5.3.6c.3.7.3 1 0 1.8-.3 1-1.7 1.4-2.7.9zm-33.4-4.2c-.8-.3-1.6-1-1.8-1.7V50l-.7-.5-.7-.7 1-3.3a7 7 0 0 0-1.4-1.3l-1.3-1.1-.6.2c-.8.3-2 .2-2.6-.3a2.6 2.6 0 0 1-1-2.6v-.9l-2.8-2.8c-2.2-2.2-3-2.8-3-2.7-.4.2-1.4.2-1.7 0-.2-.1-1 .6-3 2.6l-3 2.8.1.9c.3 2.1-1.5 3.7-3.5 3-.3-.1-.7-.2-.8-.1-.7.4-2.6 2-2.6 2.2l.5 1.9.6 1.6-.8.6-.7.5v.7c.3 1.8-.9 3.2-2.5 3.2-1 0-2-.6-2.5-1.5-.3-.5-.3-1.6 0-2.2a2.7 2.7 0 0 1 3.7-1.3l.6.3.5-.4.4-.3-.5-1.7-.5-1.8 1.6-1.4c1.4-1 1.5-1.3 1.5-1.6-.5-2 0-3.4 1.8-3.8.7-.2 1.7 0 2.2.4.2.2.4 0 3.1-2.7 2.5-2.5 2.9-3 2.8-3.2-.2-1 .7-2.1 1.8-2.1 1 0 2 1 1.8 2 0 .4.3.8 2.8 3.3l2.8 2.8.6-.3c2-1 4.2.6 3.9 2.8l-.2.9c0 .2.2.5 1.5 1.5.9.7 1.6 1.4 1.6 1.5l-.5 1.9c-.5 1.5-.5 1.6-.3 1.8.6.5.8.5 1 .3.8-.7 2.4-.6 3.3.1 1 .8 1.2 2.3.6 3.3-.5 1.1-2 1.7-3.1 1.3zm59.1-.7c-.5 0-1.1-.6-1.3-1 0-.3-.3-.3-3-.2h-3.1l-3.5-3.3-3.5-3.4h-.8c-1 0-1.5-.3-1.8-1a2 2 0 0 1 2.7-2.7c.6.3 1 1.1 1 1.7l-.1.8-.2.5 3.2 3.2 3.2 3.2H175.3l.2-.5c.4-.7 1-1.1 2-1.1.5 0 .7 0 1.2.5.4.4.5.6.6 1.3 0 .7 0 .8-.4 1.3-.6.7-1.2 1-2 .7zm-151.4-.3a2 2 0 0 1-.7-2.7c.4-.6 1.4-1 2.1-.9.6.1 1.6 1 1.6 1.3 0 .2.4.2 2.8.3l2.8.1 3.3-3.2 3.3-3.2-.2-.6c-.3-.8-.1-1.6.5-2.2.5-.4.6-.4 1.3-.4.8 0 1 0 1.4.5.5.4.6.5.6 1.4 0 .9 0 1-.6 1.4-.5.5-.6.5-1.4.5h-.9L38 48.5l-3.4 3.4h-3.1l-3-.1-.3.4c-.5.9-1.8 1.2-2.8.6zm28-3.7c-1-.5-1.3-2-.7-2.9.3-.6.7-.8 1.5-1 .6 0 1.1-.5 9.1-8.7l9.8-10.1 1.5-1.5-.5-5.3-.6-5.7c0-.3-.2-.4-.4-.5-.5-.1-1.2-1-1.3-1.6-.2-.7.1-1.5.7-2 .5-.4.7-.5 1.3-.5 1.4 0 2.3 1 2.2 2.4-.1.6-.2.8-.8 1.3l-.7.6.5 5.6.5 5.9c0 .4-7.4 8.1-17.4 18.2l-2.3 2.4.3.7c.4.8.3 1.5-.3 2.2-.4.4-.7.6-1.2.6l-1.1-.1zm95 0c-.9-.5-1.2-1.8-.7-2.7l.3-.6-.5-.5-17.8-18.4-1.5-1.5.5-5.3.5-6c0-.5 0-.5-.4-.9-1.3-.8-1.3-2.7 0-3.6 1-.5 2.3-.2 3 .7.6 1 .2 2.6-.9 3-.4.2-.6.4-.6.7l-.6 5.7-.4 5.2.8 1c3 3.2 19 19.5 19.2 19.5.3-.2 1.2.2 1.6.6.4.4.4.6.4 1.4 0 .8 0 .9-.5 1.4-.5.4-.7.5-1.3.5l-1-.2zm-122.2-.4a2 2 0 0 1-.8-.9c-.8-2 1.6-3.7 3.2-2.2l.3.3 1.7-.6 1.6-.5-.3-.4c-1-1.4-.8-3 .4-4.2 1.1-1 2.5-1.3 3.9-.6l.6.3 1-1.3c.6-.8 1.2-1.3 1.3-1.3l1.7.3c1.4.3 1.6.3 2 0 .6-.4 1.2-.3 1.8.3.6.6.7 1 .3 1.7-.3.6-.6.8-1.4.8-.7 0-1.1-.3-1.3-1-.2-.5-.5-.6-2.3-.9h-.6l-1 1c-.7 1-.8 1.3-.7 1.5.3.6.4 1.5.2 2.2-.3 1.8-2 2.8-3.9 2.5-.7-.1-.9 0-2.7.5-1.4.5-1.9.7-2 1-.2 1.5-1.8 2.2-3 1.5zm149-.2c-.3-.3-.5-.7-.6-1v-.6l-2-.6c-1.9-.6-2-.7-2.8-.5-1.4.3-2.8-.4-3.5-1.7-.4-.6-.5-1.9-.2-2.9.2-.5.2-.5-.7-1.6l-.9-1.1-1.3.2c-1.3.2-1.4.3-1.5.6-.2 1.1-1.7 1.5-2.5.7-.4-.3-.4-.5-.4-1 0-1.3 1.1-2 2.2-1.3l.5.3 1.5-.3 1.8-.3c.1 0 .6.5 1 1.1 1.2 1.5 1.2 1.5 2 1.1 2.1-1 4.7.5 4.7 3 0 .7-.3 1.5-.7 2l-.2.3 1.6.5 1.6.5.6-.4c1.5-1 3.3 0 3.1 1.8 0 .6-.2.8-.6 1.2-.5.4-.6.5-1.4.5-.7 0-.8 0-1.3-.5zM27 44.2c-.7-.4-1-.8-1-1.7 0-.9.4-1.5 1.2-1.8.7-.3 1-.2 1.8.1.5.3.6.3.8 0 .2 0 1.8-1.8 3.6-3.9l3.4-3.6 1.2-.1 2.8-.1h1.7l.2-.4c.4-1 1.8-1.4 2.8-.8a2 2 0 0 1 .7 2.7c-.4.6-1.4 1-2 1-.7-.2-1.4-.7-1.6-1.2 0-.2-.2-.3-2.6-.3h-2.6l-3.7 4.1c-3.4 3.7-3.8 4.1-3.8 4.6 0 1.3-1.7 2.2-2.9 1.4zm147.6-.3c-.4-.4-.5-.6-.5-1 0-.5-.4-1-3.7-4.6l-3.6-4h-1.3l-2.6-.1h-1.4l-.2.4a2 2 0 0 1-.7.7 2 2 0 0 1-2.7-2.6c.7-1.4 2.6-1.4 3.4 0 .2.3.3.4 1.5.4l2.9.2h1.5l3 3.3 3.7 4 .6.7.4-.3c.5-.4 1.5-.4 2.1-.1.6.3 1 1 1 1.7 0 1.2-.8 2-2 2-.7 0-.9-.1-1.4-.7zm-123.3-.2l-.6-10.8-.6-10.3-.4-.3c-.6-.5-.8-1-.8-1.7 0-1.2.8-1.9 2-1.9.7 0 .8 0 1.3.6.5.5.6.6.6 1.2 0 1-.4 1.5-1 1.9-.6.2-.6.3-.6.9a720.7 720.7 0 0 0 1 20.6l-.4.2c-.4 0-.5 0-.5-.4zm100.4-1.2l.7-10.7.5-9-.5-.3c-1-.4-1.5-1.8-1-2.8a2 2 0 0 1 2.6-.8c.8.4 1 1 1 1.8s0 .9-.5 1.4l-.6.5-.6 10.4-.6 10.7c0 .3 0 .4-.5.4h-.6zm-97.6.7c-.8-.3-1.5-1-1.5-1.9 0-.6.4-1.4 1-1.7.4-.3.8-.3 2-.1.3 0 2.1-1.7 7.4-7l7-7-.3-5.2-.3-5.2-.5-.5c-.4-.4-.5-.6-.5-1 0-1.5 1.6-2.1 2.5-1.1.6.6.6 1.4 0 2l-.5.5.3 5.5.3 5.4-7.2 7.3-7.3 7.2.1.7a2 2 0 0 1-2.5 2zm94.3-.1a2 2 0 0 1-1-2v-.6l-7.2-7.3L133 26l.3-5.4.3-5.4-.5-.5c-.7-.8-.5-2 .4-2.4.5-.2.8-.2 1.3 0 .9.4 1.1 1.7.5 2.4a2 2 0 0 1-.5.4c-.2 0-.3 1.6-.5 5.3l-.3 5.2 5.8 5.8 7 7.1 1.2 1.3.6-.2c1.7-.5 3.1.8 2.6 2.5-.3 1.1-1.8 1.7-2.8 1zM46.6 39.4a2 2 0 0 1-1-1.8c0-.6.1-1 .6-1.5.3-.3.3-.5.4-5v-4.7l-.4-.4c-1.8-1.7.3-4.4 2.4-3.2.5.3.8 1 .8 1.8 0 .6 0 .7-.5 1.2-.4.4-.8.6-1 .6-.2 0-.3 0-.3 1.8v4.6l-.1 2.8h.5c1.4.3 2 2.4 1 3.4-.8.7-1.5.8-2.4.4zm108.7 0c-.6-.4-.8-.7-1-1.3-.2-1 .5-2.1 1.6-2.4l.4-.1v-3.1l-.1-4.6c0-1.1 0-1.4-.3-1.4-1.1-.4-1.6-1-1.5-2.1.1-1.1.7-1.7 1.8-1.8.7 0 .8 0 1.3.4 1 .9 1 2.2.1 3l-.4.4v4.8c0 4 .1 4.7.3 4.9.5.4.7 1 .7 1.6 0 .7 0 .8-.5 1.3-.6.6-.7.6-1.3.6-.5 0-1 0-1.1-.2zm-10.9-4a2 2 0 0 1-1.1-2v-.7l-2.7-3-2.7-3v-5l.2-5.2-.6-.3c-.8-.6-1.1-1-1.1-2 0-1.2.8-2 2.1-2 2.1 0 2.9 3 1 4l-.6.2v10l2.6 2.7c1.7 2 2.5 2.7 2.7 2.7l1-.1c2.2-.3 2.8 2.8.8 3.7-.7.3-1 .3-1.6 0zm-87-.2c-.7-.5-1-1.7-.7-2.4.5-1 1.5-1.5 2.5-1.1l.6.2 2.5-2.8 2.6-2.8v-10l-.4-.1c-.6-.3-1.2-1-1.2-1.8-.2-1.3.7-2.3 2-2.3a2 2 0 0 1 2.1 2.1c0 .9-.5 1.7-1.2 2l-.5.2.1 5.1.1 5.1-2.7 3c-2.7 3-2.8 3-2.7 3.6a2 2 0 0 1-2 2.3l-1-.3zm37.8-.6c-1-.5-1.4-1.6-1-2.7a2 2 0 0 1 2.7-1.2l.5.2 2.2-2.2 2.2-2.2 2.4 2.3c1.7 1.6 2.4 2.2 2.5 2h1c.7 0 .9 0 1.3.4.7.6 1 1.3.7 2.1-.4 1.6-2.4 2.1-3.6 1-.5-.6-.5-.7-.5-1.7v-1l-1.8-1.8L102 28l-2 1.8-1.8 1.8.1.9c0 .7 0 .9-.3 1.3-.6 1-1.7 1.3-2.7.8zm53.3-4.7c-1-.3-1.4-1-1.4-2.2 0-.8 0-.8-1-1.7l-1-1 .1-3.1.1-3.1-.4-.3a2 2 0 0 1-1.2-1.6c-.2-2.2 2.6-3.2 4-1.4.6 1 .2 2.6-.9 3-.4.2-.4.3-.5 1.6v4.5l.7.8c.7.7 1 .8 1.1.7l1-.1c.6 0 .8 0 1.3.5.5.6.6.7.6 1.3 0 .8-.3 1.4-.8 1.8-.4.2-1.3.4-1.7.3zm-95-.6c-.6-.6-.7-.7-.7-1.3 0-1 .4-1.6 1.2-2 .6-.2.7-.2 1.3 0l.7.1.8-.8.8-.7v-3c-.1-2-.2-2.8-.3-2.9a3 3 0 0 1-1.4-1.5 2 2 0 0 1 .6-2.1c.4-.4.7-.5 1.4-.5.8 0 .9 0 1.5.5.5.5.6.7.7 1.2a2 2 0 0 1-1 2.1l-.6.4v3l.2 3-1 1.1c-1 1-1 1-1 2 0 .7 0 .8-.6 1.4-.5.5-.6.5-1.3.5-.7 0-.9 0-1.4-.5zm51.4-1a2.2 2.2 0 0 1-1.1-2c0-.7 0-.7-1-1.7l-1-1c-1.5 1.6-1.8 2-1.8 2.7 0 1.4-.7 2.2-2 2.2-1.5 0-2.4-1-2.2-2.4.1-1.5 1.7-2.4 3.1-1.7.5.2.6.2.8 0l1-1.2 1-1-.2-5-.2-5.1-.5-.5a2 2 0 0 1-.7-1.1c0-.6-.3-.8-2.3-2.5l-2.2-1.8-.4.2a2 2 0 0 1-.7.3 248.2 248.2 0 0 1-.8 2.4c-.3.9-.3 1-.1 1.3l.3.7c.1.5.2.5 2 1.2l1.9.8-.3 1.8c-.4 1.6-.4 1.8-.2 2 .7.8.5 2-.4 2.5-.7.3-1.4.1-1.8-.4-.7-.8-.4-2 .6-2.4.4-.2.5-.4.7-1.5a4 4 0 0 0 .1-1.3L95 13c-1.4-.6-1.5-.6-1.9-.4-.4.3-1.3.2-1.7-.2-.8-.8-.5-2.1.4-2.5.6-.2.6-.2 1-1.8l.4-1.6-.4-.3c-1.4-1-.8-3.7 1-3.8.9 0 1.2 0 1.7.5s.6.6.7 1.5v1l1.4 1c3.3 2.7 2.9 2.5 3.3 2.2.6-.3 1.4-.3 2 0 .2.1.5.2.6.1l2.1-1.7 2-1.7v-.7c0-1.3.9-2.2 2.2-2.2 1.3 0 2 1 2 2.4-.1.7-.2.8-.7 1.3l-.5.5.4 1.6c.2 1 .5 1.6.6 1.6.6.2 1 .4 1.1.9.5 1-.2 2.1-1.2 2.1a2 2 0 0 1-1-.2c-.2-.1-.4 0-1.6.4-2 .8-1.8.7-1.6 1.6.4 1.7.5 2 .7 2 .1 0 .4.1.7.4 1 1 .2 2.5-1.2 2.5-.6 0-1.3-.6-1.4-1.1-.1-.6.1-1.4.4-1.6.2 0 .2-.3-.1-1.8l-.4-1.9 2-.8c1.5-.6 1.8-.8 1.8-1l.3-.8c.3-.5.3-.5 0-2-.5-1.6-.6-2-1-2l-.5-.1c-.3-.2-.5-.1-2.6 1.6-2 1.6-2.2 1.9-2.3 2.4 0 .4-.3.7-.7 1l-.5.6-.2 4.8-.1 5c0 .2.4.8 1 1.6l1.1 1.3.6-.3c1.5-.8 3.2.2 3.2 2 0 1.1-1 2.1-2.2 2.1-.2 0-.7 0-1-.2zm-23-8.6c-1.4-.4-2-2.2-1.2-3.4.2-.3 1-.7 1.4-1 0 0 0-1.6-.3-3.6-.5-4-.6-4.1-1.5-4.1-.6 0-1-.2-1.3-.8-.2-.5-.2-1 0-1.5.5-.8 1.6-1 2.3-.3.5.4.7 1 .5 1.5-.1.3 0 .5.2.7a332.1 332.1 0 0 1 1.3 8.1l.4.5c.7.4 1.1 1.4 1 2.2-.2.7-.8 1.5-1.6 1.7-.6.2-.6.2-1.2 0zm38.3 0l-.8-1c-.5-1-.4-1.8.5-2.6l.6-.7.5-3.8c.5-3.4.6-4 .8-4.2.3-.3.3-.4.2-.8-.1-.4-.1-.6.1-1 .7-1.6 2.8-1 2.8.6 0 .8-.5 1.3-1.5 1.5-.3 0-.7.2-.8.3l-1 7.5.4.1c.6.1 1.3 1 1.4 1.5.4 2-1.5 3.4-3.2 2.5zM101.8 7.1A46.2 46.2 0 0 0 97 3c-.4 0-.8-.3-1-.8-.4-.5-.4-1 0-1.5.4-.8 1.5-1 2.2-.3.5.4.7 1 .4 1.6l-.1.6.8.8L101 5l1 .8 1.6-1.5 1.8-1.7-.2-.6c-.3-1 .7-2.1 1.7-2 1.7.4 1.6 2.7 0 3-.5.1-1.6 1-4.5 3.8l-.6.4z"/>
</svg>
