<?xml version="1.0" encoding="utf-8"?>
<!-- Generator: Adobe Illustrator 16.0.3, SVG Export Plug-In . SVG Version: 6.00 Build 0)  -->
<!DOCTYPE svg PUBLIC "-//W3C//DTD SVG 1.1//EN" "http://www.w3.org/Graphics/SVG/1.1/DTD/svg11.dtd">
<svg version="1.1" id="Шар_1" xmlns="http://www.w3.org/2000/svg" xmlns:xlink="http://www.w3.org/1999/xlink" x="0px" y="0px"
	 width="958.892px" height="221.684px" viewBox="0 0 958.892 221.684" enable-background="new 0 0 958.892 221.684"
	 xml:space="preserve">
<g id="Шар_2">
	<g id="Шар_37">
		<path fill="#FFFFFF" d="M334.833,178.662h-4.492v-1.098c0-2.9-2.191-2.9-6.736-2.9c-5.423,0-8.053-0.055-8.053,3.504
			c0,5.15,1.425,4.766,5.916,4.984c7.394,0.441,14.131-0.711,14.131,8.656c0,8.107-5.585,8.434-11.994,8.434
			c-6.245,0-12.764-0.326-12.764-6.736v-2.684h4.492v2.244c0,2.74,1.699,3.342,8.272,3.342c2.957,0,7.503,0.658,7.503-4.436
			c0-5.369-2.246-4.383-7.503-4.711c-6.245-0.438-12.544,0.219-12.544-7.943c0-8.326,4.765-8.49,12.544-8.49
			c5.039,0,11.228,0.221,11.228,6.736V178.662z"/>
	</g>
	<g id="Шар_36">
		<polygon fill="#FFFFFF" points="346.828,182.605 348.58,182.605 358.933,171.158 364.246,171.158 351.921,184.359 
			366.492,199.916 360.795,199.916 348.58,186.111 346.828,186.111 346.828,199.916 342.5,199.916 342.5,158.834 346.828,158.834 		
			"/>
	</g>
	<g id="Шар_35">
		<path fill="#FFFFFF" d="M382.104,170.83c10.681,0,12.762,2.572,12.762,14.732c0,12.107-2.081,14.682-12.762,14.682
			c-10.682,0-12.764-2.574-12.764-14.682C369.34,173.402,371.422,170.83,382.104,170.83 M382.104,196.738
			c7.723,0,8.27-1.205,8.27-11.176c0-10.023-0.547-11.229-8.27-11.229c-7.724,0-8.271,1.205-8.271,11.229
			C373.833,195.533,374.38,196.738,382.104,196.738 M387.252,162.174l-8.818,5.477l-1.479-2.244l8.161-6.189L387.252,162.174z"/>
	</g>
	<g id="Шар_34">
		<rect x="402.48" y="158.832" fill="#FFFFFF" width="4.327" height="41.084"/>
	</g>
	<g id="Шар_33">
		<path fill="#FFFFFF" d="M419.568,163.598h-4.327v-4.766h4.327V163.598z M419.568,199.916h-4.327v-28.758h4.327V199.916z"/>
	</g>
	<g id="Шар_32">
		<path fill="#FFFFFF" d="M467.496,199.916v-2.957l-0.11-0.111c-1.643,3.287-5.861,3.396-9.477,3.396
			c-6.462,0-10.955-1.207-10.955-8.711c0-7.939,4.109-9.035,11.229-9.035c2.849,0,8.436,0.271,9.038,2.902h0.275v-5.314
			c0-5.258-2.794-5.752-7.668-5.752c-3.397,0-7.56,0-7.506,3.943v0.988h-4.491v-0.604c0-7.395,5.094-7.889,11.504-7.834
			c7.23-0.055,12.543,0.715,12.488,9.477v19.611H467.496z M467.386,191.369c0-5.422-3.231-5.367-8.709-5.367
			c-5.148,0-7.23,0.33-7.23,4.984c0,5.479,2.245,5.752,7.23,5.752C463.004,196.738,467.386,196.629,467.386,191.369"/>
	</g>
	<g id="Шар_31">
		<path fill="#FFFFFF" d="M495.484,174.664h-11.117v18.242c0.055,3.119,0.876,3.832,4.053,3.832c4.053,0,4.053-2.137,4.053-4.877
			v-2.135h4.108v2.135c0,5.697-2.354,8.383-8.271,8.383c-6.736,0-8.272-1.918-8.272-8.654v-16.926h-3.831v-3.506h3.831v-6.957h4.329
			v6.957h11.117V174.664z"/>
	</g>
	<g id="Шар_30">
		<polygon fill="#FFFFFF" points="513.014,199.916 506.932,199.916 497.401,171.158 501.785,171.158 509.945,196.629 
			510.056,196.629 517.943,171.158 522.654,171.158 		"/>
	</g>
	<g id="Шар_29">
		<path fill="#FFFFFF" d="M531.528,163.598h-4.327v-4.766h4.327V163.598z M531.528,199.916h-4.327v-28.758h4.327V199.916z"/>
	</g>
	<g id="Шар_28">
		<path fill="#FFFFFF" d="M544.397,174.664h0.111c1.368-3.451,5.586-3.836,8.872-3.836c7.395,0,10.957,1.973,10.847,9.971v19.117
			h-4.328v-19.447c0-5.258-2.025-6.135-6.899-6.135c-7.068,0-8.603,2.193-8.603,8.818v16.764h-4.327v-28.758h4.327V174.664z"/>
	</g>
	<g id="Шар_27">
		<path fill="#FFFFFF" d="M577.209,174.664h0.109c1.37-3.451,5.586-3.836,8.872-3.836c7.396,0,10.954,1.973,10.846,9.971v19.117
			h-4.325v-19.447c0-5.258-2.027-6.135-6.903-6.135c-7.065,0-8.599,2.193-8.599,8.818v16.764h-4.327v-28.758h4.327V174.664z"/>
	</g>
	<g id="Шар_26">
		<path fill="#FFFFFF" d="M624.918,196.08h-0.111c-1.533,3.508-5.2,4.164-8.982,4.164c-7.614,0-10.299-3.066-10.299-10.629v-18.457
			h4.329v18.457c0,4.658,0.328,7.123,5.916,7.123c6.08,0,9.202-0.984,9.202-7.834v-17.746h4.326v28.758h-4.381V196.08z"/>
	</g>
	<g id="Шар_25">
		<rect x="637.9" y="158.832" fill="#FFFFFF" width="4.325" height="41.084"/>
	</g>
	<g id="Шар_24">
		<path fill="#FFFFFF" d="M658,162.174l-8.819,5.477l-1.477-2.244l8.16-6.189L658,162.174z M654.988,199.916h-4.328v-28.758h4.328
			V199.916z"/>
	</g>
	<g id="Шар_23">
		<path fill="#FFFFFF" d="M676.568,171.158v3.506h-7.612v25.252h-4.328v-25.252h-4.38v-3.506h4.38v-3.449
			c0-7.014,2.19-9.205,9.256-9.205c0.876,0,1.809,0.055,2.685,0.109v3.506c-0.876-0.055-1.809-0.109-2.685-0.109
			c-4.325,0-4.928,1.424-4.928,5.258v3.891H676.568z"/>
	</g>
	<g id="Шар_22">
		<path fill="#FFFFFF" d="M703.956,178.662h-4.491v-1.098c0-2.9-2.19-2.9-6.737-2.9c-5.422,0-8.052-0.055-8.052,3.504
			c0,5.15,1.424,4.766,5.916,4.984c7.395,0.441,14.133-0.711,14.133,8.656c0,8.107-5.588,8.434-11.997,8.434
			c-6.247,0-12.762-0.326-12.762-6.736v-2.684h4.49v2.244c0,2.74,1.698,3.342,8.271,3.342c2.958,0,7.503,0.658,7.503-4.436
			c0-5.369-2.244-4.383-7.503-4.711c-6.247-0.438-12.544,0.219-12.544-7.943c0-8.326,4.765-8.49,12.544-8.49
			c5.038,0,11.229,0.221,11.229,6.736V178.662z"/>
	</g>
	<g id="Шар_21">
		<path fill="#FFFFFF" d="M715.951,163.598h-4.326v-4.766h4.326V163.598z M715.951,199.916h-4.326v-28.758h4.326V199.916z"/>
	</g>
	<g id="Шар_20">
		<path fill="#FFFFFF" d="M728.824,174.664h0.107c1.369-3.451,5.588-3.836,8.874-3.836c7.396,0,10.955,1.973,10.846,9.971v19.117
			h-4.327v-19.447c0-5.258-2.026-6.135-6.9-6.135c-7.066,0-8.6,2.193-8.6,8.818v16.764h-4.327v-28.758h4.327V174.664z"/>
	</g>
	<g id="Шар_19">
		<path fill="#FFFFFF" d="M780.037,178.662h-4.489v-1.098c0-2.9-2.193-2.9-6.739-2.9c-5.421,0-8.05-0.055-8.05,3.504
			c0,5.15,1.422,4.766,5.913,4.984c7.395,0.441,14.134-0.711,14.134,8.656c0,8.107-5.588,8.434-11.997,8.434
			c-6.244,0-12.763-0.326-12.763-6.736v-2.684h4.491v2.244c0,2.74,1.698,3.342,8.271,3.342c2.958,0,7.504,0.658,7.504-4.436
			c0-5.369-2.246-4.383-7.504-4.711c-6.244-0.438-12.544,0.219-12.544-7.943c0-8.326,4.765-8.49,12.544-8.49
			c5.038,0,11.229,0.221,11.229,6.736V178.662z"/>
	</g>
	<g id="Шар_18">
		<path fill="#FFFFFF" d="M772.521,68.633c4.62,3.455,8.285,9.084,8.285,18.348v42.205h-16.072V89.803c0,0,0.478-9.527-5.313-11.946
			c-5.362-2.071-11.364-2.161-21.17-2.161h-0.506v53.49h-16.07V63.264h27.659C757.193,63.264,765.271,63.289,772.521,68.633"/>
	</g>
	<g id="Шар_17">
		<path fill="#FFFFFF" d="M697.014,68.633c4.619,3.455,8.28,9.084,8.28,18.348v42.205h-16.071l-0.002-39.383
			c0,0,0.48-9.527-5.31-11.946c-5.361-2.071-11.364-2.161-21.169-2.161h-0.509v53.49h-16.068V63.264h27.658
			C681.682,63.264,689.758,63.289,697.014,68.633"/>
	</g>
	<g id="Шар_16">
		<path fill="#FFFFFF" d="M613.718,34.105h16.067v13.764h-16.067V34.105z M613.718,114.559V63.282h16.067v67.222
			C619.359,130.521,613.791,123.35,613.718,114.559"/>
	</g>
	<g id="Шар_15">
		<path fill="#FFFFFF" d="M580.834,114.559V34.105h16.067v96.398C586.478,130.521,580.907,123.35,580.834,114.559"/>
	</g>
	<g id="Шар_14">
		<path fill="#FFFFFF" d="M406.073,81.008c0-8.031-4.208-8.031-12.755-8.031c-8.541,0-14.403,0-14.403,8.796
			c0,6.63,1.783,6.886,15.807,7.524c15.812,0.76,29.839-0.386,29.839,21.289c0,18.111-14.285,19.898-31.243,19.898
			c-18.228,0-30.471,0-30.471-21.811h16.068c0.253,9.691,2.55,10.838,14.403,10.838c9.567,0,15.175,0.254,15.175-8.926
			c0-5.865-0.384-8.797-16.575-9.053c-24.609-0.381-29.071-3.695-29.071-20.781c0-18.359,13.258-18.744,30.471-18.744
			c13.133,0,28.817,0.258,28.817,19H406.073z"/>
	</g>
	<g id="Шар_13">
		<path fill="#FFFFFF" d="M331.312,34.105h16.067v13.764h-16.067V34.105z M331.312,114.559V63.282h16.067v67.222
			C336.955,130.521,331.385,123.35,331.312,114.559"/>
	</g>
	<g id="Шар_12">
		<path fill="#FFFFFF" d="M110.211,87.639c0-10.838-0.891-14.662-14.279-14.662c-7.013,0-12.626,0.636-12.626,9.308H67.244
			c0-19.509,13.388-20.278,28.688-20.278c5.1,0,20.401-0.379,22.821,8.674h0.383c2.933-8.287,15.301-8.674,21.93-8.674
			c27.542,0,31.237,8.035,31.237,37.234h-46.024c0,14.406,0.378,18.996,14.787,18.996c8.924,0,15.175,0.129,15.175-9.815h16.062
			c0,21.042-12.113,22.063-31.237,22.063c-8.796,0-20.784-0.77-24.096-10.59h-0.384c-3.441,10.205-15.813,10.59-26.905,10.59
			c-15.17,0-24.986-3.188-24.986-21.299c0-16.065,8.412-20.526,24.986-20.526c8.164,0,16.196,0.123,20.023,7.901h0.507V87.639z
			 M80.756,109.186c0,9.434,3.825,10.326,14.663,10.326c8.546,0,14.792-0.766,14.792-10.326c0-9.308-6.883-9.566-14.792-9.566
			C87.261,99.619,80.756,99.619,80.756,109.186 M156.241,89.039c0-13.768-2.041-14.789-15.175-14.789
			c-13.897,0-14.787,2.936-14.787,14.789H156.241z"/>
	</g>
	<g id="Шар_11">
		<path fill="#FFFFFF" d="M306.646,68.633c4.624,3.455,8.283,9.084,8.283,18.348v42.205h-16.072V89.803
			c0,0,0.479-9.527-5.309-11.946c-5.364-2.071-11.366-2.161-21.172-2.161h-0.508v53.49H255.8V63.264h27.657
			C291.316,63.264,299.396,63.289,306.646,68.633"/>
	</g>
	<g id="Шар_10">
		<polygon fill="#FFFFFF" points="220.072,94.268 248.206,129.186 228.861,129.186 206.943,99.749 202.989,99.749 202.989,129.186 
			186.922,129.186 186.922,34.088 202.989,34.088 202.989,88.782 206.943,88.782 225.319,63.282 243.407,63.282 		"/>
	</g>
	<g id="Шар_9">
		<path fill="#FFFFFF" d="M74.545,34.104H0v12.435h29.239v67.998c0.073,8.795,5.643,15.967,16.067,15.949V46.539h29.239V34.104z"/>
	</g>
	<g id="Шар_8">
		<polygon fill="#FFFFFF" points="454.856,88.782 458.811,88.782 477.186,63.281 495.273,63.281 471.938,94.268 500.075,129.186 
			480.727,129.186 458.811,99.749 454.856,99.749 454.856,129.186 438.789,129.186 438.789,34.088 454.856,34.088 		"/>
	</g>
	<g id="Шар_7">
		<path fill="#FFFFFF" d="M564.698,96.309c0,25.887-3.572,34.174-31.497,34.174c-27.923,0-31.495-8.287-31.495-34.174
			c0-26.013,3.572-34.303,31.495-34.303C561.126,62.006,564.698,70.296,564.698,96.309 M517.774,96.432
			c0,17.854,1.146,21.807,15.427,21.807c14.284,0,15.429-3.953,15.429-21.807c0-18.102-1.145-22.183-15.429-22.183
			C518.921,74.249,517.774,78.33,517.774,96.432 M547.354,43.643l-24.73,10.965l-3.449-6.627l22.443-14.791L547.354,43.643z"/>
	</g>
	<g id="Шар_6">
		<path fill="#FFFFFF" d="M849.105,1.516c-1.179,1.965-1.442,3.711-1.452,7.152c-0.066,21.54,1.411,45.871,17.315,66.33
			c10.635,13.684,36.925,39.471,45.995,55.678c11.562,20.662,16.723,33.701,18.916,45.438c0.841,4.516,1.798,6.857,4.412,6.857
			c2.168,0,4.202-1.783,4.897-7.354c1.562-13.943,2.728-31.842-2.158-47.482c-6.771-21.709-21.416-42.812-46.089-66.406
			c-20.218-19.338-30.78-36.307-34.169-55.043c-0.412-2.281-0.522-3.5-1.888-5.166C852.732-1.113,849.886,0.208,849.105,1.516"/>
	</g>
	<g id="Шар_5">
		<path fill="#FFFFFF" d="M957.588,34.34c-0.702-1.171-3.256-2.355-5.188,0.004c-1.225,1.496-1.325,2.594-1.693,4.635
			c-2.946,16.289-11.965,31.097-29.029,47.785c5.104,8.056,9.347,16.041,12.87,23.851c3.461-3.89,6.538-7.433,8.808-10.354
			c14.266-18.351,15.593-40.183,15.535-59.5C958.881,37.667,958.643,36.107,957.588,34.34 M878.709,147.932
			c-4.382,14.029-3.34,30.084-1.936,42.594c0.624,4.992,2.448,6.598,4.392,6.598c2.348,0,3.204-2.104,3.96-6.152
			c1.968-10.531,6.599-22.225,16.97-40.762c2.134-3.814,5.346-8.225,9.073-12.873c-4.232-6.342-10.074-13.34-16.448-20.451
			C887.196,127.354,881.941,137.566,878.709,147.932"/>
	</g>
	<g id="Шар_4">
		<path fill="#FFFFFF" d="M866.689,100.438c-20.22-19.338-30.781-36.307-34.171-55.041c-0.412-2.278-0.521-3.5-1.887-5.168
			c-2.153-2.629-5.001-1.311-5.781-0.004c-1.178,1.968-1.442,3.711-1.453,7.156c-0.063,21.537,1.412,45.868,17.319,66.326
			c7.158,9.213,21.403,23.908,32.723,37.477c3.011-10.006,6.291-20.904,11.977-31.051
			C879.95,113.721,873.743,107.182,866.689,100.438 M912.776,166.846c-1.308-4.188-2.913-8.355-4.822-12.521
			c-6.73,8.01-11.708,16.926-15.265,26.176c7.452,14.508,11.163,24.846,12.935,34.324c0.844,4.516,1.801,6.859,4.417,6.859
			c2.165,0,4.197-1.789,4.894-7.354C916.499,200.385,917.662,182.486,912.776,166.846"/>
	</g>
	<g id="Шар_3">
		<rect x="-869.392" y="297.028" fill="none" width="958.892" height="221.684"/>
	</g>
</g>
</svg>
